<svg width="823" height="503" viewBox="0 0 823 503" fill="none" xmlns="http://www.w3.org/2000/svg">
<g filter="url(#filter0_d_7765_45183)">
<g clip-path="url(#clip0_7765_45183)">
<rect x="5" y="5" width="818" height="498" rx="12" fill="white"/>
<g clip-path="url(#clip1_7765_45183)">
<path opacity="0.2" d="M55 162H823" stroke="#ABABAB"/>
<path opacity="0.2" d="M55 217H823" stroke="#ABABAB"/>
<path opacity="0.2" d="M55 272H823" stroke="#ABABAB"/>
<path opacity="0.2" d="M55 327H823" stroke="#ABABAB"/>
<path opacity="0.2" d="M55 382H823" stroke="#ABABAB"/>
<path opacity="0.2" d="M55 437H823" stroke="#ABABAB"/>
</g>
<g filter="url(#filter1_d_7765_45183)">
<rect x="4" y="5" width="819" height="79" fill="white"/>
<path d="M35.056 50.162C33.808 50.162 32.74 49.898 31.852 49.37C30.964 48.842 30.28 48.092 29.8 47.12C29.332 46.148 29.098 44.99 29.098 43.646C29.098 42.638 29.23 41.738 29.494 40.946C29.77 40.142 30.16 39.464 30.664 38.912C31.18 38.348 31.81 37.916 32.554 37.616C33.298 37.304 34.132 37.148 35.056 37.148C35.8 37.148 36.508 37.256 37.18 37.472C37.852 37.676 38.434 37.982 38.926 38.39C39.082 38.51 39.184 38.648 39.232 38.804C39.292 38.948 39.298 39.092 39.25 39.236C39.214 39.368 39.142 39.482 39.034 39.578C38.938 39.662 38.818 39.704 38.674 39.704C38.53 39.704 38.368 39.644 38.188 39.524C37.756 39.176 37.282 38.918 36.766 38.75C36.25 38.582 35.692 38.498 35.092 38.498C34.144 38.498 33.34 38.702 32.68 39.11C32.02 39.506 31.522 40.088 31.186 40.856C30.85 41.624 30.682 42.554 30.682 43.646C30.682 44.738 30.85 45.674 31.186 46.454C31.522 47.222 32.02 47.81 32.68 48.218C33.34 48.614 34.144 48.812 35.092 48.812C35.68 48.812 36.238 48.728 36.766 48.56C37.294 48.38 37.78 48.116 38.224 47.768C38.404 47.648 38.566 47.594 38.71 47.606C38.854 47.606 38.974 47.648 39.07 47.732C39.166 47.816 39.232 47.924 39.268 48.056C39.316 48.188 39.316 48.326 39.268 48.47C39.232 48.614 39.142 48.74 38.998 48.848C38.494 49.28 37.9 49.61 37.216 49.838C36.544 50.054 35.824 50.162 35.056 50.162ZM44.7046 50.162C43.8526 50.162 43.1146 49.976 42.4906 49.604C41.8666 49.232 41.3806 48.71 41.0326 48.038C40.6966 47.354 40.5286 46.55 40.5286 45.626C40.5286 44.93 40.6246 44.306 40.8166 43.754C41.0086 43.19 41.2906 42.71 41.6626 42.314C42.0346 41.918 42.4726 41.618 42.9766 41.414C43.4926 41.198 44.0686 41.09 44.7046 41.09C45.5566 41.09 46.2946 41.276 46.9186 41.648C47.5426 42.02 48.0226 42.548 48.3586 43.232C48.7066 43.904 48.8806 44.702 48.8806 45.626C48.8806 46.322 48.7846 46.946 48.5926 47.498C48.4006 48.05 48.1186 48.53 47.7466 48.938C47.3746 49.334 46.9306 49.64 46.4146 49.856C45.9106 50.06 45.3406 50.162 44.7046 50.162ZM44.7046 48.992C45.2446 48.992 45.7186 48.86 46.1266 48.596C46.5346 48.332 46.8466 47.948 47.0626 47.444C47.2906 46.94 47.4046 46.334 47.4046 45.626C47.4046 44.534 47.1586 43.7 46.6666 43.124C46.1866 42.548 45.5326 42.26 44.7046 42.26C44.1526 42.26 43.6726 42.392 43.2646 42.656C42.8686 42.908 42.5566 43.286 42.3286 43.79C42.1126 44.282 42.0046 44.894 42.0046 45.626C42.0046 46.706 42.2506 47.54 42.7426 48.128C43.2346 48.704 43.8886 48.992 44.7046 48.992ZM52.0127 50.126C51.7727 50.126 51.5927 50.06 51.4727 49.928C51.3527 49.796 51.2927 49.61 51.2927 49.37V41.864C51.2927 41.624 51.3527 41.444 51.4727 41.324C51.5927 41.192 51.7667 41.126 51.9947 41.126C52.2227 41.126 52.3967 41.192 52.5167 41.324C52.6487 41.444 52.7147 41.624 52.7147 41.864V43.412L52.5167 43.196C52.7687 42.5 53.1767 41.978 53.7407 41.63C54.3167 41.27 54.9767 41.09 55.7207 41.09C56.4167 41.09 56.9927 41.216 57.4487 41.468C57.9167 41.72 58.2647 42.104 58.4927 42.62C58.7207 43.124 58.8347 43.766 58.8347 44.546V49.37C58.8347 49.61 58.7687 49.796 58.6367 49.928C58.5167 50.06 58.3427 50.126 58.1147 50.126C57.8747 50.126 57.6887 50.06 57.5567 49.928C57.4367 49.796 57.3767 49.61 57.3767 49.37V44.636C57.3767 43.82 57.2147 43.226 56.8907 42.854C56.5787 42.47 56.0747 42.278 55.3787 42.278C54.5747 42.278 53.9327 42.53 53.4527 43.034C52.9847 43.526 52.7507 44.186 52.7507 45.014V49.37C52.7507 49.874 52.5047 50.126 52.0127 50.126ZM65.2553 50.162C64.5713 50.162 63.9953 50.042 63.5273 49.802C63.0713 49.55 62.7293 49.19 62.5013 48.722C62.2733 48.242 62.1593 47.66 62.1593 46.976V42.386H60.9533C60.7493 42.386 60.5933 42.338 60.4853 42.242C60.3773 42.134 60.3233 41.99 60.3233 41.81C60.3233 41.63 60.3773 41.492 60.4853 41.396C60.5933 41.3 60.7493 41.252 60.9533 41.252H62.1593V39.182C62.1593 38.942 62.2253 38.762 62.3573 38.642C62.4893 38.51 62.6693 38.444 62.8973 38.444C63.1253 38.444 63.2993 38.51 63.4193 38.642C63.5513 38.762 63.6173 38.942 63.6173 39.182V41.252H65.8853C66.0893 41.252 66.2453 41.3 66.3533 41.396C66.4613 41.492 66.5153 41.63 66.5153 41.81C66.5153 41.99 66.4613 42.134 66.3533 42.242C66.2453 42.338 66.0893 42.386 65.8853 42.386H63.6173V46.832C63.6173 47.516 63.7613 48.038 64.0493 48.398C64.3373 48.746 64.8053 48.92 65.4533 48.92C65.6813 48.92 65.8733 48.896 66.0293 48.848C66.1973 48.8 66.3353 48.776 66.4433 48.776C66.5513 48.764 66.6413 48.8 66.7133 48.884C66.7853 48.968 66.8213 49.112 66.8213 49.316C66.8213 49.46 66.7913 49.592 66.7313 49.712C66.6833 49.832 66.5933 49.916 66.4613 49.964C66.3173 50.012 66.1253 50.054 65.8853 50.09C65.6573 50.138 65.4473 50.162 65.2553 50.162ZM68.9984 50.126C68.7584 50.126 68.5724 50.06 68.4404 49.928C68.3204 49.796 68.2604 49.61 68.2604 49.37V41.864C68.2604 41.624 68.3204 41.444 68.4404 41.324C68.5604 41.192 68.7344 41.126 68.9624 41.126C69.1904 41.126 69.3644 41.192 69.4844 41.324C69.6164 41.444 69.6824 41.624 69.6824 41.864V43.322H69.5024C69.6944 42.614 70.0604 42.068 70.6004 41.684C71.1404 41.3 71.8064 41.096 72.5984 41.072C72.7784 41.06 72.9224 41.102 73.0304 41.198C73.1384 41.282 73.1984 41.432 73.2104 41.648C73.2224 41.852 73.1744 42.014 73.0664 42.134C72.9584 42.254 72.7904 42.326 72.5624 42.35L72.2744 42.386C71.4584 42.458 70.8284 42.722 70.3844 43.178C69.9524 43.622 69.7364 44.234 69.7364 45.014V49.37C69.7364 49.61 69.6704 49.796 69.5384 49.928C69.4184 50.06 69.2384 50.126 68.9984 50.126ZM75.6537 50.09C75.4137 50.09 75.2337 50.024 75.1137 49.892C74.9937 49.748 74.9337 49.55 74.9337 49.298V41.936C74.9337 41.684 74.9937 41.492 75.1137 41.36C75.2337 41.228 75.4137 41.162 75.6537 41.162C75.8817 41.162 76.0617 41.228 76.1937 41.36C76.3257 41.492 76.3917 41.684 76.3917 41.936V49.298C76.3917 49.55 76.3257 49.748 76.1937 49.892C76.0737 50.024 75.8937 50.09 75.6537 50.09ZM75.6537 39.146C75.3537 39.146 75.1197 39.068 74.9517 38.912C74.7837 38.744 74.6997 38.522 74.6997 38.246C74.6997 37.958 74.7837 37.742 74.9517 37.598C75.1197 37.442 75.3537 37.364 75.6537 37.364C75.9657 37.364 76.1997 37.442 76.3557 37.598C76.5237 37.742 76.6077 37.958 76.6077 38.246C76.6077 38.522 76.5237 38.744 76.3557 38.912C76.1997 39.068 75.9657 39.146 75.6537 39.146ZM83.7674 50.162C82.9754 50.162 82.2914 49.958 81.7154 49.55C81.1514 49.142 80.7734 48.596 80.5814 47.912L80.7794 47.714V49.37C80.7794 49.61 80.7134 49.796 80.5814 49.928C80.4614 50.06 80.2874 50.126 80.0594 50.126C79.8194 50.126 79.6394 50.06 79.5194 49.928C79.3994 49.796 79.3394 49.61 79.3394 49.37V37.922C79.3394 37.682 79.3994 37.502 79.5194 37.382C79.6394 37.25 79.8194 37.184 80.0594 37.184C80.2874 37.184 80.4674 37.25 80.5994 37.382C80.7314 37.502 80.7974 37.682 80.7974 37.922V43.286H80.5814C80.7854 42.614 81.1694 42.08 81.7334 41.684C82.2974 41.288 82.9754 41.09 83.7674 41.09C84.5594 41.09 85.2434 41.276 85.8194 41.648C86.3954 42.008 86.8394 42.53 87.1514 43.214C87.4754 43.886 87.6374 44.69 87.6374 45.626C87.6374 46.55 87.4754 47.354 87.1514 48.038C86.8394 48.71 86.3894 49.232 85.8014 49.604C85.2254 49.976 84.5474 50.162 83.7674 50.162ZM83.4614 48.992C84.0134 48.992 84.4874 48.86 84.8834 48.596C85.2914 48.332 85.6034 47.948 85.8194 47.444C86.0474 46.94 86.1614 46.334 86.1614 45.626C86.1614 44.534 85.9154 43.7 85.4234 43.124C84.9434 42.548 84.2894 42.26 83.4614 42.26C82.9214 42.26 82.4474 42.392 82.0394 42.656C81.6314 42.908 81.3134 43.286 81.0854 43.79C80.8694 44.282 80.7614 44.894 80.7614 45.626C80.7614 46.706 81.0074 47.54 81.4994 48.128C81.9914 48.704 82.6454 48.992 83.4614 48.992ZM93.1517 50.162C92.4437 50.162 91.8557 50.036 91.3877 49.784C90.9317 49.52 90.5837 49.13 90.3437 48.614C90.1157 48.098 90.0017 47.456 90.0017 46.688V41.864C90.0017 41.612 90.0617 41.426 90.1817 41.306C90.3137 41.186 90.4937 41.126 90.7217 41.126C90.9617 41.126 91.1417 41.186 91.2617 41.306C91.3937 41.426 91.4597 41.612 91.4597 41.864V46.67C91.4597 47.438 91.6157 48.014 91.9277 48.398C92.2517 48.77 92.7557 48.956 93.4397 48.956C94.1837 48.956 94.7897 48.704 95.2577 48.2C95.7257 47.696 95.9597 47.036 95.9597 46.22V41.864C95.9597 41.612 96.0197 41.426 96.1397 41.306C96.2717 41.186 96.4577 41.126 96.6977 41.126C96.9257 41.126 97.0997 41.186 97.2197 41.306C97.3517 41.426 97.4177 41.612 97.4177 41.864V49.37C97.4177 49.874 97.1837 50.126 96.7157 50.126C96.4877 50.126 96.3077 50.06 96.1757 49.928C96.0557 49.796 95.9957 49.61 95.9957 49.37V47.732L96.2297 47.984C95.9897 48.692 95.5937 49.232 95.0417 49.604C94.5017 49.976 93.8717 50.162 93.1517 50.162ZM103.878 50.162C103.194 50.162 102.618 50.042 102.15 49.802C101.694 49.55 101.352 49.19 101.124 48.722C100.896 48.242 100.782 47.66 100.782 46.976V42.386H99.5757C99.3717 42.386 99.2157 42.338 99.1077 42.242C98.9997 42.134 98.9457 41.99 98.9457 41.81C98.9457 41.63 98.9997 41.492 99.1077 41.396C99.2157 41.3 99.3717 41.252 99.5757 41.252H100.782V39.182C100.782 38.942 100.848 38.762 100.98 38.642C101.112 38.51 101.292 38.444 101.52 38.444C101.748 38.444 101.922 38.51 102.042 38.642C102.174 38.762 102.24 38.942 102.24 39.182V41.252H104.508C104.712 41.252 104.868 41.3 104.976 41.396C105.084 41.492 105.138 41.63 105.138 41.81C105.138 41.99 105.084 42.134 104.976 42.242C104.868 42.338 104.712 42.386 104.508 42.386H102.24V46.832C102.24 47.516 102.384 48.038 102.672 48.398C102.96 48.746 103.428 48.92 104.076 48.92C104.304 48.92 104.496 48.896 104.652 48.848C104.82 48.8 104.958 48.776 105.066 48.776C105.174 48.764 105.264 48.8 105.336 48.884C105.408 48.968 105.444 49.112 105.444 49.316C105.444 49.46 105.414 49.592 105.354 49.712C105.306 49.832 105.216 49.916 105.084 49.964C104.94 50.012 104.748 50.054 104.508 50.09C104.28 50.138 104.07 50.162 103.878 50.162ZM107.708 50.09C107.468 50.09 107.288 50.024 107.168 49.892C107.048 49.748 106.988 49.55 106.988 49.298V41.936C106.988 41.684 107.048 41.492 107.168 41.36C107.288 41.228 107.468 41.162 107.708 41.162C107.936 41.162 108.116 41.228 108.248 41.36C108.38 41.492 108.446 41.684 108.446 41.936V49.298C108.446 49.55 108.38 49.748 108.248 49.892C108.128 50.024 107.948 50.09 107.708 50.09ZM107.708 39.146C107.408 39.146 107.174 39.068 107.006 38.912C106.838 38.744 106.754 38.522 106.754 38.246C106.754 37.958 106.838 37.742 107.006 37.598C107.174 37.442 107.408 37.364 107.708 37.364C108.02 37.364 108.254 37.442 108.41 37.598C108.578 37.742 108.662 37.958 108.662 38.246C108.662 38.522 108.578 38.744 108.41 38.912C108.254 39.068 108.02 39.146 107.708 39.146ZM115.03 50.162C114.178 50.162 113.44 49.976 112.816 49.604C112.192 49.232 111.706 48.71 111.358 48.038C111.022 47.354 110.854 46.55 110.854 45.626C110.854 44.93 110.95 44.306 111.142 43.754C111.334 43.19 111.616 42.71 111.988 42.314C112.36 41.918 112.798 41.618 113.302 41.414C113.818 41.198 114.394 41.09 115.03 41.09C115.882 41.09 116.62 41.276 117.244 41.648C117.868 42.02 118.348 42.548 118.684 43.232C119.032 43.904 119.206 44.702 119.206 45.626C119.206 46.322 119.11 46.946 118.918 47.498C118.726 48.05 118.444 48.53 118.072 48.938C117.7 49.334 117.256 49.64 116.74 49.856C116.236 50.06 115.666 50.162 115.03 50.162ZM115.03 48.992C115.57 48.992 116.044 48.86 116.452 48.596C116.86 48.332 117.172 47.948 117.388 47.444C117.616 46.94 117.73 46.334 117.73 45.626C117.73 44.534 117.484 43.7 116.992 43.124C116.512 42.548 115.858 42.26 115.03 42.26C114.478 42.26 113.998 42.392 113.59 42.656C113.194 42.908 112.882 43.286 112.654 43.79C112.438 44.282 112.33 44.894 112.33 45.626C112.33 46.706 112.576 47.54 113.068 48.128C113.56 48.704 114.214 48.992 115.03 48.992ZM122.338 50.126C122.098 50.126 121.918 50.06 121.798 49.928C121.678 49.796 121.618 49.61 121.618 49.37V41.864C121.618 41.624 121.678 41.444 121.798 41.324C121.918 41.192 122.092 41.126 122.32 41.126C122.548 41.126 122.722 41.192 122.842 41.324C122.974 41.444 123.04 41.624 123.04 41.864V43.412L122.842 43.196C123.094 42.5 123.502 41.978 124.066 41.63C124.642 41.27 125.302 41.09 126.046 41.09C126.742 41.09 127.318 41.216 127.774 41.468C128.242 41.72 128.59 42.104 128.818 42.62C129.046 43.124 129.16 43.766 129.16 44.546V49.37C129.16 49.61 129.094 49.796 128.962 49.928C128.842 50.06 128.668 50.126 128.44 50.126C128.2 50.126 128.014 50.06 127.882 49.928C127.762 49.796 127.702 49.61 127.702 49.37V44.636C127.702 43.82 127.54 43.226 127.216 42.854C126.904 42.47 126.4 42.278 125.704 42.278C124.9 42.278 124.258 42.53 123.778 43.034C123.31 43.526 123.076 44.186 123.076 45.014V49.37C123.076 49.874 122.83 50.126 122.338 50.126ZM136.861 50.126C136.669 50.126 136.513 50.084 136.393 50C136.285 49.904 136.219 49.784 136.195 49.64C136.183 49.484 136.219 49.31 136.303 49.118L141.253 37.85C141.361 37.61 141.487 37.442 141.631 37.346C141.787 37.238 141.955 37.184 142.135 37.184C142.315 37.184 142.477 37.238 142.621 37.346C142.777 37.442 142.903 37.61 142.999 37.85L147.967 49.118C148.063 49.31 148.099 49.484 148.075 49.64C148.063 49.796 148.003 49.916 147.895 50C147.787 50.084 147.637 50.126 147.445 50.126C147.229 50.126 147.055 50.072 146.923 49.964C146.791 49.844 146.683 49.676 146.599 49.46L145.267 46.382L145.987 46.76H138.247L138.985 46.382L137.671 49.46C137.563 49.688 137.449 49.856 137.329 49.964C137.209 50.072 137.053 50.126 136.861 50.126ZM142.117 39.038L139.219 45.86L138.787 45.518H145.447L145.051 45.86L142.153 39.038H142.117ZM150.989 50.126C150.749 50.126 150.569 50.06 150.449 49.928C150.329 49.796 150.269 49.61 150.269 49.37V41.864C150.269 41.624 150.329 41.444 150.449 41.324C150.569 41.192 150.743 41.126 150.971 41.126C151.199 41.126 151.373 41.192 151.493 41.324C151.625 41.444 151.691 41.624 151.691 41.864V43.412L151.493 43.196C151.745 42.5 152.153 41.978 152.717 41.63C153.293 41.27 153.953 41.09 154.697 41.09C155.393 41.09 155.969 41.216 156.425 41.468C156.893 41.72 157.241 42.104 157.469 42.62C157.697 43.124 157.811 43.766 157.811 44.546V49.37C157.811 49.61 157.745 49.796 157.613 49.928C157.493 50.06 157.319 50.126 157.091 50.126C156.851 50.126 156.665 50.06 156.533 49.928C156.413 49.796 156.353 49.61 156.353 49.37V44.636C156.353 43.82 156.191 43.226 155.867 42.854C155.555 42.47 155.051 42.278 154.355 42.278C153.551 42.278 152.909 42.53 152.429 43.034C151.961 43.526 151.727 44.186 151.727 45.014V49.37C151.727 49.874 151.481 50.126 150.989 50.126ZM163.475 50.162C162.875 50.162 162.335 50.048 161.855 49.82C161.387 49.58 161.015 49.256 160.739 48.848C160.463 48.44 160.325 47.984 160.325 47.48C160.325 46.832 160.487 46.322 160.811 45.95C161.147 45.578 161.693 45.314 162.449 45.158C163.217 45.002 164.261 44.924 165.581 44.924H166.391V45.878H165.599C164.627 45.878 163.859 45.926 163.295 46.022C162.743 46.106 162.353 46.256 162.125 46.472C161.909 46.688 161.801 46.994 161.801 47.39C161.801 47.882 161.969 48.284 162.305 48.596C162.653 48.908 163.121 49.064 163.709 49.064C164.189 49.064 164.609 48.95 164.969 48.722C165.341 48.494 165.629 48.182 165.833 47.786C166.049 47.39 166.157 46.934 166.157 46.418V44.366C166.157 43.622 166.007 43.088 165.707 42.764C165.407 42.428 164.915 42.26 164.231 42.26C163.811 42.26 163.391 42.314 162.971 42.422C162.551 42.53 162.107 42.704 161.639 42.944C161.471 43.028 161.327 43.058 161.207 43.034C161.087 42.998 160.991 42.932 160.919 42.836C160.847 42.74 160.805 42.632 160.793 42.512C160.781 42.38 160.805 42.254 160.865 42.134C160.937 42.014 161.045 41.918 161.189 41.846C161.717 41.582 162.239 41.39 162.755 41.27C163.271 41.15 163.763 41.09 164.231 41.09C164.987 41.09 165.611 41.216 166.103 41.468C166.595 41.708 166.961 42.08 167.201 42.584C167.441 43.076 167.561 43.712 167.561 44.492V49.37C167.561 49.61 167.501 49.796 167.381 49.928C167.273 50.06 167.111 50.126 166.895 50.126C166.667 50.126 166.493 50.06 166.373 49.928C166.253 49.796 166.193 49.61 166.193 49.37V47.966H166.355C166.259 48.422 166.073 48.812 165.797 49.136C165.533 49.46 165.203 49.712 164.807 49.892C164.411 50.072 163.967 50.162 163.475 50.162ZM173.152 50.162C172.288 50.162 171.628 49.898 171.172 49.37C170.716 48.842 170.488 48.086 170.488 47.102V37.922C170.488 37.682 170.548 37.502 170.668 37.382C170.788 37.25 170.968 37.184 171.208 37.184C171.436 37.184 171.616 37.25 171.748 37.382C171.88 37.502 171.946 37.682 171.946 37.922V46.994C171.946 47.642 172.072 48.128 172.324 48.452C172.588 48.764 172.972 48.92 173.476 48.92C173.584 48.92 173.68 48.914 173.764 48.902C173.848 48.89 173.932 48.884 174.016 48.884C174.148 48.872 174.238 48.902 174.286 48.974C174.346 49.046 174.376 49.19 174.376 49.406C174.376 49.622 174.328 49.784 174.232 49.892C174.136 50 173.98 50.072 173.764 50.108C173.668 50.12 173.566 50.132 173.458 50.144C173.35 50.156 173.248 50.162 173.152 50.162ZM177.787 53.366C177.607 53.366 177.463 53.318 177.355 53.222C177.247 53.126 177.181 52.994 177.157 52.826C177.145 52.67 177.175 52.508 177.247 52.34L178.489 49.55V50.18L175.033 42.152C174.961 41.972 174.937 41.804 174.961 41.648C174.985 41.492 175.057 41.366 175.177 41.27C175.297 41.174 175.465 41.126 175.681 41.126C175.873 41.126 176.023 41.168 176.131 41.252C176.239 41.336 176.335 41.486 176.419 41.702L179.371 48.938H178.885L181.873 41.702C181.969 41.486 182.071 41.336 182.179 41.252C182.287 41.168 182.443 41.126 182.647 41.126C182.839 41.126 182.983 41.174 183.079 41.27C183.187 41.366 183.247 41.492 183.259 41.648C183.283 41.792 183.259 41.954 183.187 42.134L178.579 52.79C178.483 53.006 178.375 53.156 178.255 53.24C178.147 53.324 177.991 53.366 177.787 53.366ZM188.088 50.162C187.548 50.162 187.002 50.096 186.45 49.964C185.91 49.832 185.406 49.604 184.938 49.28C184.818 49.196 184.734 49.1 184.686 48.992C184.638 48.872 184.62 48.758 184.632 48.65C184.656 48.53 184.704 48.428 184.776 48.344C184.86 48.26 184.956 48.212 185.064 48.2C185.184 48.176 185.316 48.2 185.46 48.272C185.928 48.56 186.378 48.764 186.81 48.884C187.254 48.992 187.692 49.046 188.124 49.046C188.808 49.046 189.324 48.92 189.672 48.668C190.02 48.416 190.194 48.074 190.194 47.642C190.194 47.306 190.08 47.042 189.852 46.85C189.624 46.646 189.264 46.49 188.772 46.382L187.134 46.022C186.378 45.866 185.814 45.596 185.442 45.212C185.082 44.828 184.902 44.33 184.902 43.718C184.902 43.178 185.04 42.716 185.316 42.332C185.604 41.936 186.006 41.63 186.522 41.414C187.038 41.198 187.638 41.09 188.322 41.09C188.85 41.09 189.348 41.162 189.816 41.306C190.296 41.438 190.728 41.654 191.112 41.954C191.232 42.038 191.31 42.14 191.346 42.26C191.394 42.368 191.4 42.482 191.364 42.602C191.34 42.71 191.286 42.806 191.202 42.89C191.118 42.962 191.016 43.004 190.896 43.016C190.776 43.028 190.65 42.992 190.518 42.908C190.158 42.668 189.792 42.494 189.42 42.386C189.048 42.266 188.682 42.206 188.322 42.206C187.65 42.206 187.14 42.338 186.792 42.602C186.444 42.866 186.27 43.214 186.27 43.646C186.27 43.982 186.378 44.258 186.594 44.474C186.81 44.69 187.146 44.846 187.602 44.942L189.24 45.284C190.02 45.452 190.602 45.722 190.986 46.094C191.382 46.454 191.58 46.946 191.58 47.57C191.58 48.362 191.262 48.992 190.626 49.46C189.99 49.928 189.144 50.162 188.088 50.162ZM194.744 50.09C194.504 50.09 194.324 50.024 194.204 49.892C194.084 49.748 194.024 49.55 194.024 49.298V41.936C194.024 41.684 194.084 41.492 194.204 41.36C194.324 41.228 194.504 41.162 194.744 41.162C194.972 41.162 195.152 41.228 195.284 41.36C195.416 41.492 195.482 41.684 195.482 41.936V49.298C195.482 49.55 195.416 49.748 195.284 49.892C195.164 50.024 194.984 50.09 194.744 50.09ZM194.744 39.146C194.444 39.146 194.21 39.068 194.042 38.912C193.874 38.744 193.79 38.522 193.79 38.246C193.79 37.958 193.874 37.742 194.042 37.598C194.21 37.442 194.444 37.364 194.744 37.364C195.056 37.364 195.29 37.442 195.446 37.598C195.614 37.742 195.698 37.958 195.698 38.246C195.698 38.522 195.614 38.744 195.446 38.912C195.29 39.068 195.056 39.146 194.744 39.146ZM201.382 50.162C200.842 50.162 200.296 50.096 199.744 49.964C199.204 49.832 198.7 49.604 198.232 49.28C198.112 49.196 198.028 49.1 197.98 48.992C197.932 48.872 197.914 48.758 197.926 48.65C197.95 48.53 197.998 48.428 198.07 48.344C198.154 48.26 198.25 48.212 198.358 48.2C198.478 48.176 198.61 48.2 198.754 48.272C199.222 48.56 199.672 48.764 200.104 48.884C200.548 48.992 200.986 49.046 201.418 49.046C202.102 49.046 202.618 48.92 202.966 48.668C203.314 48.416 203.488 48.074 203.488 47.642C203.488 47.306 203.374 47.042 203.146 46.85C202.918 46.646 202.558 46.49 202.066 46.382L200.428 46.022C199.672 45.866 199.108 45.596 198.736 45.212C198.376 44.828 198.196 44.33 198.196 43.718C198.196 43.178 198.334 42.716 198.61 42.332C198.898 41.936 199.3 41.63 199.816 41.414C200.332 41.198 200.932 41.09 201.616 41.09C202.144 41.09 202.642 41.162 203.11 41.306C203.59 41.438 204.022 41.654 204.406 41.954C204.526 42.038 204.604 42.14 204.64 42.26C204.688 42.368 204.694 42.482 204.658 42.602C204.634 42.71 204.58 42.806 204.496 42.89C204.412 42.962 204.31 43.004 204.19 43.016C204.07 43.028 203.944 42.992 203.812 42.908C203.452 42.668 203.086 42.494 202.714 42.386C202.342 42.266 201.976 42.206 201.616 42.206C200.944 42.206 200.434 42.338 200.086 42.602C199.738 42.866 199.564 43.214 199.564 43.646C199.564 43.982 199.672 44.258 199.888 44.474C200.104 44.69 200.44 44.846 200.896 44.942L202.534 45.284C203.314 45.452 203.896 45.722 204.28 46.094C204.676 46.454 204.874 46.946 204.874 47.57C204.874 48.362 204.556 48.992 203.92 49.46C203.284 49.928 202.438 50.162 201.382 50.162Z" fill="#13192E"/>
<rect x="613.5" y="28.5" width="185" height="31" rx="4.5" fill="white"/>
<path opacity="0.4" d="M625.56 47.552C626.092 47.846 627.156 48.14 628.234 48.14C630.824 48.14 632.028 46.796 632.028 45.214C632.028 43.884 631.258 43.016 629.592 42.4C628.36 41.938 627.842 41.672 627.842 41.07C627.842 40.594 628.29 40.16 629.214 40.16C630.124 40.16 630.81 40.426 631.174 40.608L631.65 38.9C631.09 38.634 630.32 38.424 629.242 38.424C627.03 38.424 625.672 39.642 625.672 41.252C625.672 42.624 626.708 43.492 628.276 44.052C629.41 44.444 629.858 44.78 629.858 45.368C629.858 45.984 629.34 46.39 628.36 46.39C627.45 46.39 626.554 46.096 625.994 45.802L625.56 47.552ZM639.558 45.256C639.586 45.102 639.628 44.78 639.628 44.416C639.628 42.722 638.788 41 636.576 41C634.196 41 633.118 42.918 633.118 44.654C633.118 46.796 634.448 48.14 636.772 48.14C637.696 48.14 638.55 48 639.25 47.706L638.97 46.264C638.396 46.46 637.808 46.558 637.08 46.558C636.086 46.558 635.204 46.138 635.148 45.256H639.558ZM635.134 43.8C635.19 43.24 635.554 42.414 636.45 42.414C637.43 42.414 637.654 43.282 637.654 43.8H635.134ZM640.907 48H643.035V38.06H640.907V48ZM650.81 45.256C650.838 45.102 650.88 44.78 650.88 44.416C650.88 42.722 650.04 41 647.828 41C645.448 41 644.37 42.918 644.37 44.654C644.37 46.796 645.7 48.14 648.024 48.14C648.948 48.14 649.802 48 650.502 47.706L650.222 46.264C649.648 46.46 649.06 46.558 648.332 46.558C647.338 46.558 646.456 46.138 646.4 45.256H650.81ZM646.386 43.8C646.442 43.24 646.806 42.414 647.702 42.414C648.682 42.414 648.906 43.282 648.906 43.8H646.386ZM657.045 46.25C656.723 46.39 656.331 46.474 655.827 46.474C654.791 46.474 653.951 45.802 653.951 44.556C653.937 43.436 654.665 42.638 655.785 42.638C656.345 42.638 656.723 42.736 656.975 42.848L657.311 41.266C656.863 41.098 656.247 41 655.687 41C653.139 41 651.767 42.638 651.767 44.64C651.767 46.782 653.181 48.14 655.393 48.14C656.205 48.14 656.919 48 657.297 47.818L657.045 46.25ZM658.988 39.88V41.154H658.078V42.722H658.988V45.522C658.988 46.488 659.184 47.146 659.576 47.552C659.926 47.902 660.5 48.14 661.186 48.14C661.774 48.14 662.292 48.056 662.558 47.958L662.544 46.348C662.348 46.39 662.208 46.404 661.914 46.404C661.284 46.404 661.074 46.026 661.074 45.2V42.722H662.6V41.154H661.074V39.306L658.988 39.88ZM671.173 38.06V41.756H671.145C670.837 41.294 670.193 40.986 669.339 40.986C667.701 40.986 666.259 42.33 666.273 44.64C666.273 46.768 667.575 48.154 669.199 48.154C670.081 48.154 670.921 47.762 671.341 47.006H671.383L671.467 48H673.357C673.329 47.538 673.301 46.726 673.301 45.956V38.06H671.173ZM671.173 44.948C671.173 45.116 671.159 45.284 671.131 45.438C671.005 46.04 670.501 46.46 669.885 46.46C669.003 46.46 668.429 45.732 668.429 44.57C668.429 43.492 668.919 42.624 669.899 42.624C670.557 42.624 671.019 43.1 671.145 43.66C671.173 43.786 671.173 43.94 671.173 44.052V44.948ZM680.702 43.954C680.702 42.33 679.988 40.986 677.706 40.986C676.46 40.986 675.522 41.336 675.046 41.602L675.438 42.974C675.886 42.694 676.628 42.456 677.328 42.456C678.378 42.456 678.574 42.974 678.574 43.352V43.436C676.152 43.436 674.556 44.276 674.556 46.054C674.556 47.146 675.382 48.154 676.768 48.154C677.58 48.154 678.28 47.86 678.728 47.314H678.77L678.896 48H680.814C680.73 47.622 680.702 46.992 680.702 46.348V43.954ZM678.644 45.508C678.644 45.634 678.63 45.76 678.602 45.872C678.462 46.306 678.014 46.656 677.496 46.656C677.02 46.656 676.656 46.39 676.656 45.844C676.656 45.032 677.524 44.766 678.644 44.766V45.508ZM682.586 39.88V41.154H681.676V42.722H682.586V45.522C682.586 46.488 682.782 47.146 683.174 47.552C683.524 47.902 684.098 48.14 684.784 48.14C685.372 48.14 685.89 48.056 686.156 47.958L686.142 46.348C685.946 46.39 685.806 46.404 685.512 46.404C684.882 46.404 684.672 46.026 684.672 45.2V42.722H686.198V41.154H684.672V39.306L682.586 39.88ZM693.412 45.256C693.44 45.102 693.482 44.78 693.482 44.416C693.482 42.722 692.642 41 690.43 41C688.05 41 686.972 42.918 686.972 44.654C686.972 46.796 688.302 48.14 690.626 48.14C691.55 48.14 692.404 48 693.104 47.706L692.824 46.264C692.25 46.46 691.662 46.558 690.934 46.558C689.94 46.558 689.058 46.138 689.002 45.256H693.412ZM688.988 43.8C689.044 43.24 689.408 42.414 690.304 42.414C691.284 42.414 691.508 43.282 691.508 43.8H688.988Z" fill="black" fill-opacity="0.85"/>
<path d="M786.5 38.875H783.875V37.875C783.875 37.8063 783.819 37.75 783.75 37.75H782.875C782.806 37.75 782.75 37.8063 782.75 37.875V38.875H778.75V37.875C778.75 37.8063 778.694 37.75 778.625 37.75H777.75C777.681 37.75 777.625 37.8063 777.625 37.875V38.875H775C774.723 38.875 774.5 39.0984 774.5 39.375V49.75C774.5 50.0266 774.723 50.25 775 50.25H786.5C786.777 50.25 787 50.0266 787 49.75V39.375C787 39.0984 786.777 38.875 786.5 38.875ZM785.875 49.125H775.625V43.1875H785.875V49.125ZM775.625 42.125V40H777.625V40.75C777.625 40.8188 777.681 40.875 777.75 40.875H778.625C778.694 40.875 778.75 40.8188 778.75 40.75V40H782.75V40.75C782.75 40.8188 782.806 40.875 782.875 40.875H783.75C783.819 40.875 783.875 40.8188 783.875 40.75V40H785.875V42.125H775.625Z" fill="black" fill-opacity="0.25"/>
<rect x="613.5" y="28.5" width="185" height="31" rx="4.5" stroke="#D9D9D9"/>
<rect x="4.5" y="5.5" width="818" height="78" stroke="#D8D8DA"/>
</g>
<path d="M42 437H799" stroke="#DBDBDB"/>
<path d="M67.8089 471C67.5529 471 67.3649 470.944 67.2449 470.832C67.1329 470.712 67.0769 470.54 67.0769 470.316C67.0769 470.18 67.1129 470.048 67.1849 469.92C67.2569 469.792 67.3609 469.656 67.4969 469.512L69.9089 466.944C70.2769 466.56 70.5409 466.212 70.7009 465.9C70.8609 465.58 70.9409 465.26 70.9409 464.94C70.9409 464.54 70.8129 464.236 70.5569 464.028C70.3089 463.82 69.9449 463.716 69.4649 463.716C69.1929 463.716 68.9209 463.756 68.6489 463.836C68.3769 463.908 68.1009 464.036 67.8209 464.22C67.6769 464.316 67.5409 464.356 67.4129 464.34C67.2929 464.324 67.1849 464.272 67.0889 464.184C67.0009 464.096 66.9409 463.988 66.9089 463.86C66.8769 463.732 66.8809 463.604 66.9209 463.476C66.9689 463.34 67.0649 463.224 67.2089 463.128C67.5529 462.896 67.9369 462.72 68.3609 462.6C68.7929 462.48 69.2249 462.42 69.6569 462.42C70.2649 462.42 70.7769 462.512 71.1929 462.696C71.6089 462.88 71.9249 463.148 72.1409 463.5C72.3569 463.852 72.4649 464.28 72.4649 464.784C72.4649 465.12 72.4089 465.448 72.2969 465.768C72.1929 466.088 72.0289 466.412 71.8049 466.74C71.5889 467.068 71.3049 467.416 70.9529 467.784L68.6969 470.136V469.728H72.2249C72.4409 469.728 72.6049 469.78 72.7169 469.884C72.8289 469.988 72.8849 470.144 72.8849 470.352C72.8849 470.56 72.8289 470.72 72.7169 470.832C72.6049 470.944 72.4409 471 72.2249 471H67.8089ZM78.174 471.096C77.982 471.096 77.826 471.052 77.706 470.964C77.594 470.876 77.526 470.76 77.502 470.616C77.478 470.464 77.506 470.296 77.586 470.112L80.754 463.092C80.858 462.86 80.982 462.696 81.126 462.6C81.278 462.496 81.45 462.444 81.642 462.444C81.826 462.444 81.99 462.496 82.134 462.6C82.286 462.696 82.414 462.86 82.518 463.092L85.698 470.112C85.786 470.296 85.818 470.464 85.794 470.616C85.77 470.768 85.702 470.888 85.59 470.976C85.478 471.056 85.33 471.096 85.146 471.096C84.922 471.096 84.746 471.044 84.618 470.94C84.498 470.828 84.39 470.66 84.294 470.436L83.514 468.624L84.162 469.044H79.098L79.746 468.624L78.978 470.436C78.874 470.668 78.766 470.836 78.654 470.94C78.542 471.044 78.382 471.096 78.174 471.096ZM81.618 464.208L79.938 468.204L79.626 467.82H83.634L83.334 468.204L81.642 464.208H81.618ZM89.2497 471.12C88.7617 471.12 88.3577 471.032 88.0377 470.856C87.7177 470.672 87.4777 470.4 87.3177 470.04C87.1657 469.68 87.0897 469.232 87.0897 468.696V465.792C87.0897 465.536 87.1537 465.348 87.2817 465.228C87.4097 465.1 87.5937 465.036 87.8337 465.036C88.0737 465.036 88.2577 465.1 88.3857 465.228C88.5217 465.348 88.5897 465.536 88.5897 465.792V468.72C88.5897 469.136 88.6737 469.444 88.8417 469.644C89.0097 469.844 89.2777 469.944 89.6457 469.944C90.0457 469.944 90.3737 469.808 90.6297 469.536C90.8857 469.256 91.0137 468.888 91.0137 468.432V465.792C91.0137 465.536 91.0777 465.348 91.2057 465.228C91.3337 465.1 91.5177 465.036 91.7577 465.036C91.9977 465.036 92.1817 465.1 92.3097 465.228C92.4457 465.348 92.5137 465.536 92.5137 465.792V470.328C92.5137 470.84 92.2697 471.096 91.7817 471.096C91.5497 471.096 91.3697 471.032 91.2417 470.904C91.1137 470.768 91.0497 470.576 91.0497 470.328V469.416L91.2177 469.776C91.0497 470.208 90.7937 470.54 90.4497 470.772C90.1137 471.004 89.7137 471.12 89.2497 471.12ZM97.0609 473.28C96.6289 473.28 96.2089 473.24 95.8009 473.16C95.4009 473.08 95.0369 472.956 94.7089 472.788C94.5569 472.708 94.4529 472.612 94.3969 472.5C94.3489 472.388 94.3329 472.272 94.3489 472.152C94.3729 472.04 94.4209 471.94 94.4929 471.852C94.5729 471.764 94.6689 471.704 94.7809 471.672C94.8929 471.64 95.0089 471.656 95.1289 471.72C95.4809 471.896 95.8129 472.008 96.1249 472.056C96.4449 472.112 96.7169 472.14 96.9409 472.14C97.4769 472.14 97.8769 472.008 98.1409 471.744C98.4129 471.488 98.5489 471.104 98.5489 470.592V469.512H98.6569C98.5369 469.92 98.2849 470.248 97.9009 470.496C97.5249 470.736 97.0969 470.856 96.6169 470.856C96.0889 470.856 95.6289 470.736 95.2369 470.496C94.8449 470.248 94.5409 469.904 94.3249 469.464C94.1089 469.024 94.0009 468.512 94.0009 467.928C94.0009 467.488 94.0609 467.092 94.1809 466.74C94.3089 466.38 94.4849 466.072 94.7089 465.816C94.9409 465.56 95.2169 465.364 95.5369 465.228C95.8649 465.084 96.2249 465.012 96.6169 465.012C97.1129 465.012 97.5449 465.136 97.9129 465.384C98.2889 465.624 98.5329 465.944 98.6449 466.344L98.5249 466.644V465.792C98.5249 465.544 98.5889 465.356 98.7169 465.228C98.8529 465.1 99.0369 465.036 99.2689 465.036C99.5089 465.036 99.6929 465.1 99.8209 465.228C99.9489 465.356 100.013 465.544 100.013 465.792V470.412C100.013 471.364 99.7609 472.08 99.2569 472.56C98.7529 473.04 98.0209 473.28 97.0609 473.28ZM97.0249 469.716C97.3369 469.716 97.6049 469.644 97.8289 469.5C98.0529 469.356 98.2249 469.152 98.3449 468.888C98.4729 468.616 98.5369 468.296 98.5369 467.928C98.5369 467.376 98.4009 466.944 98.1289 466.632C97.8569 466.312 97.4889 466.152 97.0249 466.152C96.7129 466.152 96.4449 466.224 96.2209 466.368C95.9969 466.512 95.8209 466.716 95.6929 466.98C95.5729 467.244 95.5129 467.56 95.5129 467.928C95.5129 468.48 95.6489 468.916 95.9209 469.236C96.1929 469.556 96.5609 469.716 97.0249 469.716Z" fill="#606166"/>
<path d="M184.645 471.12C184.213 471.12 183.765 471.064 183.301 470.952C182.837 470.84 182.433 470.672 182.089 470.448C181.929 470.344 181.821 470.224 181.765 470.088C181.709 469.952 181.693 469.824 181.717 469.704C181.749 469.576 181.809 469.468 181.897 469.38C181.993 469.292 182.109 469.24 182.245 469.224C182.389 469.208 182.545 469.244 182.713 469.332C183.041 469.508 183.357 469.636 183.661 469.716C183.965 469.788 184.277 469.824 184.597 469.824C184.949 469.824 185.245 469.776 185.485 469.68C185.725 469.584 185.905 469.44 186.025 469.248C186.153 469.056 186.217 468.824 186.217 468.552C186.217 468.152 186.081 467.856 185.809 467.664C185.545 467.464 185.157 467.364 184.645 467.364H183.877C183.653 467.364 183.481 467.308 183.361 467.196C183.249 467.084 183.193 466.928 183.193 466.728C183.193 466.528 183.249 466.372 183.361 466.26C183.481 466.148 183.653 466.092 183.877 466.092H184.501C184.805 466.092 185.065 466.044 185.281 465.948C185.497 465.844 185.665 465.7 185.785 465.516C185.905 465.332 185.965 465.108 185.965 464.844C185.965 464.476 185.841 464.196 185.593 464.004C185.353 463.812 185.001 463.716 184.537 463.716C184.241 463.716 183.961 463.752 183.697 463.824C183.441 463.888 183.157 464.012 182.845 464.196C182.701 464.284 182.561 464.32 182.425 464.304C182.297 464.288 182.189 464.236 182.101 464.148C182.013 464.06 181.953 463.956 181.921 463.836C181.889 463.708 181.897 463.58 181.945 463.452C181.993 463.316 182.093 463.2 182.245 463.104C182.589 462.88 182.969 462.712 183.385 462.6C183.801 462.48 184.229 462.42 184.669 462.42C185.253 462.42 185.753 462.512 186.169 462.696C186.585 462.872 186.901 463.128 187.117 463.464C187.341 463.792 187.453 464.192 187.453 464.664C187.453 465 187.389 465.308 187.261 465.588C187.133 465.86 186.953 466.092 186.721 466.284C186.489 466.476 186.209 466.612 185.881 466.692V466.548C186.457 466.644 186.905 466.884 187.225 467.268C187.545 467.644 187.705 468.116 187.705 468.684C187.705 469.18 187.581 469.612 187.333 469.98C187.085 470.348 186.733 470.632 186.277 470.832C185.821 471.024 185.277 471.12 184.645 471.12ZM193.174 471.096C192.982 471.096 192.826 471.052 192.706 470.964C192.594 470.876 192.526 470.76 192.502 470.616C192.478 470.464 192.506 470.296 192.586 470.112L195.754 463.092C195.858 462.86 195.982 462.696 196.126 462.6C196.278 462.496 196.45 462.444 196.642 462.444C196.826 462.444 196.99 462.496 197.134 462.6C197.286 462.696 197.414 462.86 197.518 463.092L200.698 470.112C200.786 470.296 200.818 470.464 200.794 470.616C200.77 470.768 200.702 470.888 200.59 470.976C200.478 471.056 200.33 471.096 200.146 471.096C199.922 471.096 199.746 471.044 199.618 470.94C199.498 470.828 199.39 470.66 199.294 470.436L198.514 468.624L199.162 469.044H194.098L194.746 468.624L193.978 470.436C193.874 470.668 193.766 470.836 193.654 470.94C193.542 471.044 193.382 471.096 193.174 471.096ZM196.618 464.208L194.938 468.204L194.626 467.82H198.634L198.334 468.204L196.642 464.208H196.618ZM204.25 471.12C203.762 471.12 203.358 471.032 203.038 470.856C202.718 470.672 202.478 470.4 202.318 470.04C202.166 469.68 202.09 469.232 202.09 468.696V465.792C202.09 465.536 202.154 465.348 202.282 465.228C202.41 465.1 202.594 465.036 202.834 465.036C203.074 465.036 203.258 465.1 203.386 465.228C203.522 465.348 203.59 465.536 203.59 465.792V468.72C203.59 469.136 203.674 469.444 203.842 469.644C204.01 469.844 204.278 469.944 204.646 469.944C205.046 469.944 205.374 469.808 205.63 469.536C205.886 469.256 206.014 468.888 206.014 468.432V465.792C206.014 465.536 206.078 465.348 206.206 465.228C206.334 465.1 206.518 465.036 206.758 465.036C206.998 465.036 207.182 465.1 207.31 465.228C207.446 465.348 207.514 465.536 207.514 465.792V470.328C207.514 470.84 207.27 471.096 206.782 471.096C206.55 471.096 206.37 471.032 206.242 470.904C206.114 470.768 206.05 470.576 206.05 470.328V469.416L206.218 469.776C206.05 470.208 205.794 470.54 205.45 470.772C205.114 471.004 204.714 471.12 204.25 471.12ZM212.061 473.28C211.629 473.28 211.209 473.24 210.801 473.16C210.401 473.08 210.037 472.956 209.709 472.788C209.557 472.708 209.453 472.612 209.397 472.5C209.349 472.388 209.333 472.272 209.349 472.152C209.373 472.04 209.421 471.94 209.493 471.852C209.573 471.764 209.669 471.704 209.781 471.672C209.893 471.64 210.009 471.656 210.129 471.72C210.481 471.896 210.813 472.008 211.125 472.056C211.445 472.112 211.717 472.14 211.941 472.14C212.477 472.14 212.877 472.008 213.141 471.744C213.413 471.488 213.549 471.104 213.549 470.592V469.512H213.657C213.537 469.92 213.285 470.248 212.901 470.496C212.525 470.736 212.097 470.856 211.617 470.856C211.089 470.856 210.629 470.736 210.237 470.496C209.845 470.248 209.541 469.904 209.325 469.464C209.109 469.024 209.001 468.512 209.001 467.928C209.001 467.488 209.061 467.092 209.181 466.74C209.309 466.38 209.485 466.072 209.709 465.816C209.941 465.56 210.217 465.364 210.537 465.228C210.865 465.084 211.225 465.012 211.617 465.012C212.113 465.012 212.545 465.136 212.913 465.384C213.289 465.624 213.533 465.944 213.645 466.344L213.525 466.644V465.792C213.525 465.544 213.589 465.356 213.717 465.228C213.853 465.1 214.037 465.036 214.269 465.036C214.509 465.036 214.693 465.1 214.821 465.228C214.949 465.356 215.013 465.544 215.013 465.792V470.412C215.013 471.364 214.761 472.08 214.257 472.56C213.753 473.04 213.021 473.28 212.061 473.28ZM212.025 469.716C212.337 469.716 212.605 469.644 212.829 469.5C213.053 469.356 213.225 469.152 213.345 468.888C213.473 468.616 213.537 468.296 213.537 467.928C213.537 467.376 213.401 466.944 213.129 466.632C212.857 466.312 212.489 466.152 212.025 466.152C211.713 466.152 211.445 466.224 211.221 466.368C210.997 466.512 210.821 466.716 210.693 466.98C210.573 467.244 210.513 467.56 210.513 467.928C210.513 468.48 210.649 468.916 210.921 469.236C211.193 469.556 211.561 469.716 212.025 469.716Z" fill="#606166"/>
<path d="M301.169 471.096C300.929 471.096 300.741 471.032 300.605 470.904C300.469 470.768 300.401 470.576 300.401 470.328V469.392H297.437C297.189 469.392 296.989 469.34 296.837 469.236C296.693 469.132 296.621 468.968 296.621 468.744C296.621 468.616 296.653 468.476 296.717 468.324C296.789 468.172 296.913 467.972 297.089 467.724L300.377 462.96C300.489 462.792 300.613 462.664 300.749 462.576C300.885 462.488 301.041 462.444 301.217 462.444C301.425 462.444 301.597 462.508 301.733 462.636C301.869 462.756 301.937 462.948 301.937 463.212V468.12H302.525C302.757 468.12 302.929 468.176 303.041 468.288C303.161 468.392 303.221 468.548 303.221 468.756C303.221 468.964 303.161 469.124 303.041 469.236C302.929 469.34 302.757 469.392 302.525 469.392H301.937V470.328C301.937 470.576 301.869 470.768 301.733 470.904C301.597 471.032 301.409 471.096 301.169 471.096ZM300.401 468.12V464.376H300.749L297.917 468.528V468.12H300.401ZM308.174 471.096C307.982 471.096 307.826 471.052 307.706 470.964C307.594 470.876 307.526 470.76 307.502 470.616C307.478 470.464 307.506 470.296 307.586 470.112L310.754 463.092C310.858 462.86 310.982 462.696 311.126 462.6C311.278 462.496 311.45 462.444 311.642 462.444C311.826 462.444 311.99 462.496 312.134 462.6C312.286 462.696 312.414 462.86 312.518 463.092L315.698 470.112C315.786 470.296 315.818 470.464 315.794 470.616C315.77 470.768 315.702 470.888 315.59 470.976C315.478 471.056 315.33 471.096 315.146 471.096C314.922 471.096 314.746 471.044 314.618 470.94C314.498 470.828 314.39 470.66 314.294 470.436L313.514 468.624L314.162 469.044H309.098L309.746 468.624L308.978 470.436C308.874 470.668 308.766 470.836 308.654 470.94C308.542 471.044 308.382 471.096 308.174 471.096ZM311.618 464.208L309.938 468.204L309.626 467.82H313.634L313.334 468.204L311.642 464.208H311.618ZM319.25 471.12C318.762 471.12 318.358 471.032 318.038 470.856C317.718 470.672 317.478 470.4 317.318 470.04C317.166 469.68 317.09 469.232 317.09 468.696V465.792C317.09 465.536 317.154 465.348 317.282 465.228C317.41 465.1 317.594 465.036 317.834 465.036C318.074 465.036 318.258 465.1 318.386 465.228C318.522 465.348 318.59 465.536 318.59 465.792V468.72C318.59 469.136 318.674 469.444 318.842 469.644C319.01 469.844 319.278 469.944 319.646 469.944C320.046 469.944 320.374 469.808 320.63 469.536C320.886 469.256 321.014 468.888 321.014 468.432V465.792C321.014 465.536 321.078 465.348 321.206 465.228C321.334 465.1 321.518 465.036 321.758 465.036C321.998 465.036 322.182 465.1 322.31 465.228C322.446 465.348 322.514 465.536 322.514 465.792V470.328C322.514 470.84 322.27 471.096 321.782 471.096C321.55 471.096 321.37 471.032 321.242 470.904C321.114 470.768 321.05 470.576 321.05 470.328V469.416L321.218 469.776C321.05 470.208 320.794 470.54 320.45 470.772C320.114 471.004 319.714 471.12 319.25 471.12ZM327.061 473.28C326.629 473.28 326.209 473.24 325.801 473.16C325.401 473.08 325.037 472.956 324.709 472.788C324.557 472.708 324.453 472.612 324.397 472.5C324.349 472.388 324.333 472.272 324.349 472.152C324.373 472.04 324.421 471.94 324.493 471.852C324.573 471.764 324.669 471.704 324.781 471.672C324.893 471.64 325.009 471.656 325.129 471.72C325.481 471.896 325.813 472.008 326.125 472.056C326.445 472.112 326.717 472.14 326.941 472.14C327.477 472.14 327.877 472.008 328.141 471.744C328.413 471.488 328.549 471.104 328.549 470.592V469.512H328.657C328.537 469.92 328.285 470.248 327.901 470.496C327.525 470.736 327.097 470.856 326.617 470.856C326.089 470.856 325.629 470.736 325.237 470.496C324.845 470.248 324.541 469.904 324.325 469.464C324.109 469.024 324.001 468.512 324.001 467.928C324.001 467.488 324.061 467.092 324.181 466.74C324.309 466.38 324.485 466.072 324.709 465.816C324.941 465.56 325.217 465.364 325.537 465.228C325.865 465.084 326.225 465.012 326.617 465.012C327.113 465.012 327.545 465.136 327.913 465.384C328.289 465.624 328.533 465.944 328.645 466.344L328.525 466.644V465.792C328.525 465.544 328.589 465.356 328.717 465.228C328.853 465.1 329.037 465.036 329.269 465.036C329.509 465.036 329.693 465.1 329.821 465.228C329.949 465.356 330.013 465.544 330.013 465.792V470.412C330.013 471.364 329.761 472.08 329.257 472.56C328.753 473.04 328.021 473.28 327.061 473.28ZM327.025 469.716C327.337 469.716 327.605 469.644 327.829 469.5C328.053 469.356 328.225 469.152 328.345 468.888C328.473 468.616 328.537 468.296 328.537 467.928C328.537 467.376 328.401 466.944 328.129 466.632C327.857 466.312 327.489 466.152 327.025 466.152C326.713 466.152 326.445 466.224 326.221 466.368C325.997 466.512 325.821 466.716 325.693 466.98C325.573 467.244 325.513 467.56 325.513 467.928C325.513 468.48 325.649 468.916 325.921 469.236C326.193 469.556 326.561 469.716 327.025 469.716Z" fill="#606166"/>
<path d="M414.885 471.12C414.461 471.12 414.029 471.064 413.589 470.952C413.149 470.84 412.745 470.668 412.377 470.436C412.225 470.34 412.121 470.228 412.065 470.1C412.017 469.964 412.005 469.832 412.029 469.704C412.061 469.568 412.121 469.456 412.209 469.368C412.305 469.272 412.417 469.216 412.545 469.2C412.681 469.184 412.829 469.22 412.989 469.308C413.285 469.476 413.585 469.604 413.889 469.692C414.193 469.78 414.517 469.824 414.861 469.824C415.197 469.824 415.485 469.764 415.725 469.644C415.965 469.524 416.149 469.356 416.277 469.14C416.405 468.924 416.469 468.672 416.469 468.384C416.469 467.936 416.333 467.576 416.061 467.304C415.789 467.024 415.417 466.884 414.945 466.884C414.689 466.884 414.441 466.928 414.201 467.016C413.961 467.096 413.725 467.24 413.493 467.448C413.421 467.512 413.329 467.576 413.217 467.64C413.105 467.696 412.985 467.724 412.857 467.724C412.657 467.724 412.505 467.672 412.401 467.568C412.297 467.464 412.245 467.32 412.245 467.136V463.212C412.245 462.996 412.301 462.832 412.413 462.72C412.533 462.6 412.701 462.54 412.917 462.54H416.865C417.081 462.54 417.245 462.596 417.357 462.708C417.477 462.812 417.537 462.968 417.537 463.176C417.537 463.376 417.477 463.532 417.357 463.644C417.245 463.756 417.081 463.812 416.865 463.812H413.745V466.5H413.349C413.557 466.22 413.833 466.004 414.177 465.852C414.521 465.7 414.897 465.624 415.305 465.624C415.841 465.624 416.305 465.74 416.697 465.972C417.097 466.196 417.405 466.512 417.621 466.92C417.845 467.32 417.957 467.788 417.957 468.324C417.957 468.876 417.833 469.364 417.585 469.788C417.337 470.204 416.981 470.532 416.517 470.772C416.061 471.004 415.517 471.12 414.885 471.12ZM423.174 471.096C422.982 471.096 422.826 471.052 422.706 470.964C422.594 470.876 422.526 470.76 422.502 470.616C422.478 470.464 422.506 470.296 422.586 470.112L425.754 463.092C425.858 462.86 425.982 462.696 426.126 462.6C426.278 462.496 426.45 462.444 426.642 462.444C426.826 462.444 426.99 462.496 427.134 462.6C427.286 462.696 427.414 462.86 427.518 463.092L430.698 470.112C430.786 470.296 430.818 470.464 430.794 470.616C430.77 470.768 430.702 470.888 430.59 470.976C430.478 471.056 430.33 471.096 430.146 471.096C429.922 471.096 429.746 471.044 429.618 470.94C429.498 470.828 429.39 470.66 429.294 470.436L428.514 468.624L429.162 469.044H424.098L424.746 468.624L423.978 470.436C423.874 470.668 423.766 470.836 423.654 470.94C423.542 471.044 423.382 471.096 423.174 471.096ZM426.618 464.208L424.938 468.204L424.626 467.82H428.634L428.334 468.204L426.642 464.208H426.618ZM434.25 471.12C433.762 471.12 433.358 471.032 433.038 470.856C432.718 470.672 432.478 470.4 432.318 470.04C432.166 469.68 432.09 469.232 432.09 468.696V465.792C432.09 465.536 432.154 465.348 432.282 465.228C432.41 465.1 432.594 465.036 432.834 465.036C433.074 465.036 433.258 465.1 433.386 465.228C433.522 465.348 433.59 465.536 433.59 465.792V468.72C433.59 469.136 433.674 469.444 433.842 469.644C434.01 469.844 434.278 469.944 434.646 469.944C435.046 469.944 435.374 469.808 435.63 469.536C435.886 469.256 436.014 468.888 436.014 468.432V465.792C436.014 465.536 436.078 465.348 436.206 465.228C436.334 465.1 436.518 465.036 436.758 465.036C436.998 465.036 437.182 465.1 437.31 465.228C437.446 465.348 437.514 465.536 437.514 465.792V470.328C437.514 470.84 437.27 471.096 436.782 471.096C436.55 471.096 436.37 471.032 436.242 470.904C436.114 470.768 436.05 470.576 436.05 470.328V469.416L436.218 469.776C436.05 470.208 435.794 470.54 435.45 470.772C435.114 471.004 434.714 471.12 434.25 471.12ZM442.061 473.28C441.629 473.28 441.209 473.24 440.801 473.16C440.401 473.08 440.037 472.956 439.709 472.788C439.557 472.708 439.453 472.612 439.397 472.5C439.349 472.388 439.333 472.272 439.349 472.152C439.373 472.04 439.421 471.94 439.493 471.852C439.573 471.764 439.669 471.704 439.781 471.672C439.893 471.64 440.009 471.656 440.129 471.72C440.481 471.896 440.813 472.008 441.125 472.056C441.445 472.112 441.717 472.14 441.941 472.14C442.477 472.14 442.877 472.008 443.141 471.744C443.413 471.488 443.549 471.104 443.549 470.592V469.512H443.657C443.537 469.92 443.285 470.248 442.901 470.496C442.525 470.736 442.097 470.856 441.617 470.856C441.089 470.856 440.629 470.736 440.237 470.496C439.845 470.248 439.541 469.904 439.325 469.464C439.109 469.024 439.001 468.512 439.001 467.928C439.001 467.488 439.061 467.092 439.181 466.74C439.309 466.38 439.485 466.072 439.709 465.816C439.941 465.56 440.217 465.364 440.537 465.228C440.865 465.084 441.225 465.012 441.617 465.012C442.113 465.012 442.545 465.136 442.913 465.384C443.289 465.624 443.533 465.944 443.645 466.344L443.525 466.644V465.792C443.525 465.544 443.589 465.356 443.717 465.228C443.853 465.1 444.037 465.036 444.269 465.036C444.509 465.036 444.693 465.1 444.821 465.228C444.949 465.356 445.013 465.544 445.013 465.792V470.412C445.013 471.364 444.761 472.08 444.257 472.56C443.753 473.04 443.021 473.28 442.061 473.28ZM442.025 469.716C442.337 469.716 442.605 469.644 442.829 469.5C443.053 469.356 443.225 469.152 443.345 468.888C443.473 468.616 443.537 468.296 443.537 467.928C443.537 467.376 443.401 466.944 443.129 466.632C442.857 466.312 442.489 466.152 442.025 466.152C441.713 466.152 441.445 466.224 441.221 466.368C440.997 466.512 440.821 466.716 440.693 466.98C440.573 467.244 440.513 467.56 440.513 467.928C440.513 468.48 440.649 468.916 440.921 469.236C441.193 469.556 441.561 469.716 442.025 469.716Z" fill="#606166"/>
<path d="M530.125 471.12C529.429 471.12 528.833 470.956 528.337 470.628C527.849 470.292 527.477 469.812 527.221 469.188C526.965 468.564 526.837 467.808 526.837 466.92C526.837 466.2 526.917 465.564 527.077 465.012C527.245 464.452 527.485 463.98 527.797 463.596C528.109 463.212 528.489 462.92 528.937 462.72C529.393 462.52 529.905 462.42 530.473 462.42C530.825 462.42 531.181 462.476 531.541 462.588C531.909 462.692 532.253 462.852 532.573 463.068C532.701 463.148 532.785 463.252 532.825 463.38C532.865 463.508 532.869 463.636 532.837 463.764C532.813 463.884 532.757 463.992 532.669 464.088C532.589 464.176 532.485 464.232 532.357 464.256C532.229 464.272 532.089 464.236 531.937 464.148C531.665 463.988 531.409 463.876 531.169 463.812C530.929 463.748 530.689 463.716 530.449 463.716C529.985 463.716 529.593 463.824 529.273 464.04C528.953 464.256 528.709 464.58 528.541 465.012C528.381 465.444 528.301 465.984 528.301 466.632V467.532H528.157C528.221 467.124 528.353 466.776 528.553 466.488C528.761 466.192 529.025 465.968 529.345 465.816C529.665 465.656 530.021 465.576 530.413 465.576C530.901 465.576 531.333 465.692 531.709 465.924C532.085 466.156 532.381 466.476 532.597 466.884C532.813 467.292 532.921 467.76 532.921 468.288C532.921 468.832 532.801 469.32 532.561 469.752C532.329 470.176 532.001 470.512 531.577 470.76C531.161 471 530.677 471.12 530.125 471.12ZM530.041 469.896C530.329 469.896 530.581 469.832 530.797 469.704C531.021 469.576 531.193 469.396 531.313 469.164C531.433 468.924 531.493 468.652 531.493 468.348C531.493 468.036 531.433 467.764 531.313 467.532C531.193 467.3 531.021 467.12 530.797 466.992C530.581 466.856 530.329 466.788 530.041 466.788C529.753 466.788 529.501 466.856 529.285 466.992C529.069 467.12 528.897 467.3 528.769 467.532C528.649 467.764 528.589 468.036 528.589 468.348C528.589 468.652 528.649 468.924 528.769 469.164C528.897 469.396 529.069 469.576 529.285 469.704C529.501 469.832 529.753 469.896 530.041 469.896ZM538.174 471.096C537.982 471.096 537.826 471.052 537.706 470.964C537.594 470.876 537.526 470.76 537.502 470.616C537.478 470.464 537.506 470.296 537.586 470.112L540.754 463.092C540.858 462.86 540.982 462.696 541.126 462.6C541.278 462.496 541.45 462.444 541.642 462.444C541.826 462.444 541.99 462.496 542.134 462.6C542.286 462.696 542.414 462.86 542.518 463.092L545.698 470.112C545.786 470.296 545.818 470.464 545.794 470.616C545.77 470.768 545.702 470.888 545.59 470.976C545.478 471.056 545.33 471.096 545.146 471.096C544.922 471.096 544.746 471.044 544.618 470.94C544.498 470.828 544.39 470.66 544.294 470.436L543.514 468.624L544.162 469.044H539.098L539.746 468.624L538.978 470.436C538.874 470.668 538.766 470.836 538.654 470.94C538.542 471.044 538.382 471.096 538.174 471.096ZM541.618 464.208L539.938 468.204L539.626 467.82H543.634L543.334 468.204L541.642 464.208H541.618ZM549.25 471.12C548.762 471.12 548.358 471.032 548.038 470.856C547.718 470.672 547.478 470.4 547.318 470.04C547.166 469.68 547.09 469.232 547.09 468.696V465.792C547.09 465.536 547.154 465.348 547.282 465.228C547.41 465.1 547.594 465.036 547.834 465.036C548.074 465.036 548.258 465.1 548.386 465.228C548.522 465.348 548.59 465.536 548.59 465.792V468.72C548.59 469.136 548.674 469.444 548.842 469.644C549.01 469.844 549.278 469.944 549.646 469.944C550.046 469.944 550.374 469.808 550.63 469.536C550.886 469.256 551.014 468.888 551.014 468.432V465.792C551.014 465.536 551.078 465.348 551.206 465.228C551.334 465.1 551.518 465.036 551.758 465.036C551.998 465.036 552.182 465.1 552.31 465.228C552.446 465.348 552.514 465.536 552.514 465.792V470.328C552.514 470.84 552.27 471.096 551.782 471.096C551.55 471.096 551.37 471.032 551.242 470.904C551.114 470.768 551.05 470.576 551.05 470.328V469.416L551.218 469.776C551.05 470.208 550.794 470.54 550.45 470.772C550.114 471.004 549.714 471.12 549.25 471.12ZM557.061 473.28C556.629 473.28 556.209 473.24 555.801 473.16C555.401 473.08 555.037 472.956 554.709 472.788C554.557 472.708 554.453 472.612 554.397 472.5C554.349 472.388 554.333 472.272 554.349 472.152C554.373 472.04 554.421 471.94 554.493 471.852C554.573 471.764 554.669 471.704 554.781 471.672C554.893 471.64 555.009 471.656 555.129 471.72C555.481 471.896 555.813 472.008 556.125 472.056C556.445 472.112 556.717 472.14 556.941 472.14C557.477 472.14 557.877 472.008 558.141 471.744C558.413 471.488 558.549 471.104 558.549 470.592V469.512H558.657C558.537 469.92 558.285 470.248 557.901 470.496C557.525 470.736 557.097 470.856 556.617 470.856C556.089 470.856 555.629 470.736 555.237 470.496C554.845 470.248 554.541 469.904 554.325 469.464C554.109 469.024 554.001 468.512 554.001 467.928C554.001 467.488 554.061 467.092 554.181 466.74C554.309 466.38 554.485 466.072 554.709 465.816C554.941 465.56 555.217 465.364 555.537 465.228C555.865 465.084 556.225 465.012 556.617 465.012C557.113 465.012 557.545 465.136 557.913 465.384C558.289 465.624 558.533 465.944 558.645 466.344L558.525 466.644V465.792C558.525 465.544 558.589 465.356 558.717 465.228C558.853 465.1 559.037 465.036 559.269 465.036C559.509 465.036 559.693 465.1 559.821 465.228C559.949 465.356 560.013 465.544 560.013 465.792V470.412C560.013 471.364 559.761 472.08 559.257 472.56C558.753 473.04 558.021 473.28 557.061 473.28ZM557.025 469.716C557.337 469.716 557.605 469.644 557.829 469.5C558.053 469.356 558.225 469.152 558.345 468.888C558.473 468.616 558.537 468.296 558.537 467.928C558.537 467.376 558.401 466.944 558.129 466.632C557.857 466.312 557.489 466.152 557.025 466.152C556.713 466.152 556.445 466.224 556.221 466.368C555.997 466.512 555.821 466.716 555.693 466.98C555.573 467.244 555.513 467.56 555.513 467.928C555.513 468.48 555.649 468.916 555.921 469.236C556.193 469.556 556.561 469.716 557.025 469.716Z" fill="#606166"/>
<path d="M643.277 471.096C643.093 471.096 642.941 471.052 642.821 470.964C642.701 470.876 642.629 470.76 642.605 470.616C642.581 470.464 642.617 470.296 642.713 470.112L646.337 463.296V463.824H642.449C642.233 463.824 642.065 463.768 641.945 463.656C641.833 463.544 641.777 463.388 641.777 463.188C641.777 462.98 641.833 462.82 641.945 462.708C642.065 462.596 642.233 462.54 642.449 462.54H647.093C647.309 462.54 647.485 462.596 647.621 462.708C647.757 462.82 647.825 462.98 647.825 463.188C647.825 463.364 647.801 463.52 647.753 463.656C647.705 463.784 647.641 463.924 647.561 464.076L644.153 470.592C644.065 470.768 643.949 470.896 643.805 470.976C643.669 471.056 643.493 471.096 643.277 471.096ZM653.174 471.096C652.982 471.096 652.826 471.052 652.706 470.964C652.594 470.876 652.526 470.76 652.502 470.616C652.478 470.464 652.506 470.296 652.586 470.112L655.754 463.092C655.858 462.86 655.982 462.696 656.126 462.6C656.278 462.496 656.45 462.444 656.642 462.444C656.826 462.444 656.99 462.496 657.134 462.6C657.286 462.696 657.414 462.86 657.518 463.092L660.698 470.112C660.786 470.296 660.818 470.464 660.794 470.616C660.77 470.768 660.702 470.888 660.59 470.976C660.478 471.056 660.33 471.096 660.146 471.096C659.922 471.096 659.746 471.044 659.618 470.94C659.498 470.828 659.39 470.66 659.294 470.436L658.514 468.624L659.162 469.044H654.098L654.746 468.624L653.978 470.436C653.874 470.668 653.766 470.836 653.654 470.94C653.542 471.044 653.382 471.096 653.174 471.096ZM656.618 464.208L654.938 468.204L654.626 467.82H658.634L658.334 468.204L656.642 464.208H656.618ZM664.25 471.12C663.762 471.12 663.358 471.032 663.038 470.856C662.718 470.672 662.478 470.4 662.318 470.04C662.166 469.68 662.09 469.232 662.09 468.696V465.792C662.09 465.536 662.154 465.348 662.282 465.228C662.41 465.1 662.594 465.036 662.834 465.036C663.074 465.036 663.258 465.1 663.386 465.228C663.522 465.348 663.59 465.536 663.59 465.792V468.72C663.59 469.136 663.674 469.444 663.842 469.644C664.01 469.844 664.278 469.944 664.646 469.944C665.046 469.944 665.374 469.808 665.63 469.536C665.886 469.256 666.014 468.888 666.014 468.432V465.792C666.014 465.536 666.078 465.348 666.206 465.228C666.334 465.1 666.518 465.036 666.758 465.036C666.998 465.036 667.182 465.1 667.31 465.228C667.446 465.348 667.514 465.536 667.514 465.792V470.328C667.514 470.84 667.27 471.096 666.782 471.096C666.55 471.096 666.37 471.032 666.242 470.904C666.114 470.768 666.05 470.576 666.05 470.328V469.416L666.218 469.776C666.05 470.208 665.794 470.54 665.45 470.772C665.114 471.004 664.714 471.12 664.25 471.12ZM672.061 473.28C671.629 473.28 671.209 473.24 670.801 473.16C670.401 473.08 670.037 472.956 669.709 472.788C669.557 472.708 669.453 472.612 669.397 472.5C669.349 472.388 669.333 472.272 669.349 472.152C669.373 472.04 669.421 471.94 669.493 471.852C669.573 471.764 669.669 471.704 669.781 471.672C669.893 471.64 670.009 471.656 670.129 471.72C670.481 471.896 670.813 472.008 671.125 472.056C671.445 472.112 671.717 472.14 671.941 472.14C672.477 472.14 672.877 472.008 673.141 471.744C673.413 471.488 673.549 471.104 673.549 470.592V469.512H673.657C673.537 469.92 673.285 470.248 672.901 470.496C672.525 470.736 672.097 470.856 671.617 470.856C671.089 470.856 670.629 470.736 670.237 470.496C669.845 470.248 669.541 469.904 669.325 469.464C669.109 469.024 669.001 468.512 669.001 467.928C669.001 467.488 669.061 467.092 669.181 466.74C669.309 466.38 669.485 466.072 669.709 465.816C669.941 465.56 670.217 465.364 670.537 465.228C670.865 465.084 671.225 465.012 671.617 465.012C672.113 465.012 672.545 465.136 672.913 465.384C673.289 465.624 673.533 465.944 673.645 466.344L673.525 466.644V465.792C673.525 465.544 673.589 465.356 673.717 465.228C673.853 465.1 674.037 465.036 674.269 465.036C674.509 465.036 674.693 465.1 674.821 465.228C674.949 465.356 675.013 465.544 675.013 465.792V470.412C675.013 471.364 674.761 472.08 674.257 472.56C673.753 473.04 673.021 473.28 672.061 473.28ZM672.025 469.716C672.337 469.716 672.605 469.644 672.829 469.5C673.053 469.356 673.225 469.152 673.345 468.888C673.473 468.616 673.537 468.296 673.537 467.928C673.537 467.376 673.401 466.944 673.129 466.632C672.857 466.312 672.489 466.152 672.025 466.152C671.713 466.152 671.445 466.224 671.221 466.368C670.997 466.512 670.821 466.716 670.693 466.98C670.573 467.244 670.513 467.56 670.513 467.928C670.513 468.48 670.649 468.916 670.921 469.236C671.193 469.556 671.561 469.716 672.025 469.716Z" fill="#606166"/>
<path d="M759.813 471.12C759.157 471.12 758.593 471.028 758.121 470.844C757.657 470.652 757.297 470.376 757.041 470.016C756.793 469.656 756.669 469.224 756.669 468.72C756.669 468.32 756.749 467.968 756.909 467.664C757.077 467.352 757.305 467.1 757.593 466.908C757.881 466.716 758.209 466.596 758.577 466.548V466.8C758.065 466.688 757.653 466.444 757.341 466.068C757.037 465.684 756.885 465.228 756.885 464.7C756.885 464.22 757.005 463.812 757.245 463.476C757.485 463.132 757.825 462.872 758.265 462.696C758.705 462.512 759.221 462.42 759.813 462.42C760.413 462.42 760.933 462.512 761.373 462.696C761.813 462.872 762.153 463.132 762.393 463.476C762.633 463.812 762.753 464.22 762.753 464.7C762.753 465.052 762.681 465.376 762.537 465.672C762.401 465.968 762.205 466.212 761.949 466.404C761.701 466.596 761.409 466.724 761.073 466.788V466.548C761.633 466.628 762.085 466.864 762.429 467.256C762.781 467.64 762.957 468.128 762.957 468.72C762.957 469.224 762.829 469.656 762.573 470.016C762.325 470.376 761.965 470.652 761.493 470.844C761.029 471.028 760.469 471.12 759.813 471.12ZM759.813 469.92C760.381 469.92 760.809 469.812 761.097 469.596C761.385 469.372 761.529 469.044 761.529 468.612C761.529 468.18 761.385 467.856 761.097 467.64C760.809 467.424 760.381 467.316 759.813 467.316C759.253 467.316 758.825 467.424 758.529 467.64C758.241 467.856 758.097 468.18 758.097 468.612C758.097 469.044 758.241 469.372 758.529 469.596C758.825 469.812 759.253 469.92 759.813 469.92ZM759.813 466.116C760.133 466.116 760.405 466.068 760.629 465.972C760.853 465.868 761.025 465.72 761.145 465.528C761.265 465.336 761.325 465.112 761.325 464.856C761.325 464.472 761.189 464.172 760.917 463.956C760.653 463.732 760.285 463.62 759.813 463.62C759.341 463.62 758.973 463.732 758.709 463.956C758.445 464.172 758.313 464.472 758.313 464.856C758.313 465.248 758.445 465.556 758.709 465.78C758.973 466.004 759.341 466.116 759.813 466.116ZM768.174 471.096C767.982 471.096 767.826 471.052 767.706 470.964C767.594 470.876 767.526 470.76 767.502 470.616C767.478 470.464 767.506 470.296 767.586 470.112L770.754 463.092C770.858 462.86 770.982 462.696 771.126 462.6C771.278 462.496 771.45 462.444 771.642 462.444C771.826 462.444 771.99 462.496 772.134 462.6C772.286 462.696 772.414 462.86 772.518 463.092L775.698 470.112C775.786 470.296 775.818 470.464 775.794 470.616C775.77 470.768 775.702 470.888 775.59 470.976C775.478 471.056 775.33 471.096 775.146 471.096C774.922 471.096 774.746 471.044 774.618 470.94C774.498 470.828 774.39 470.66 774.294 470.436L773.514 468.624L774.162 469.044H769.098L769.746 468.624L768.978 470.436C768.874 470.668 768.766 470.836 768.654 470.94C768.542 471.044 768.382 471.096 768.174 471.096ZM771.618 464.208L769.938 468.204L769.626 467.82H773.634L773.334 468.204L771.642 464.208H771.618ZM779.25 471.12C778.762 471.12 778.358 471.032 778.038 470.856C777.718 470.672 777.478 470.4 777.318 470.04C777.166 469.68 777.09 469.232 777.09 468.696V465.792C777.09 465.536 777.154 465.348 777.282 465.228C777.41 465.1 777.594 465.036 777.834 465.036C778.074 465.036 778.258 465.1 778.386 465.228C778.522 465.348 778.59 465.536 778.59 465.792V468.72C778.59 469.136 778.674 469.444 778.842 469.644C779.01 469.844 779.278 469.944 779.646 469.944C780.046 469.944 780.374 469.808 780.63 469.536C780.886 469.256 781.014 468.888 781.014 468.432V465.792C781.014 465.536 781.078 465.348 781.206 465.228C781.334 465.1 781.518 465.036 781.758 465.036C781.998 465.036 782.182 465.1 782.31 465.228C782.446 465.348 782.514 465.536 782.514 465.792V470.328C782.514 470.84 782.27 471.096 781.782 471.096C781.55 471.096 781.37 471.032 781.242 470.904C781.114 470.768 781.05 470.576 781.05 470.328V469.416L781.218 469.776C781.05 470.208 780.794 470.54 780.45 470.772C780.114 471.004 779.714 471.12 779.25 471.12ZM787.061 473.28C786.629 473.28 786.209 473.24 785.801 473.16C785.401 473.08 785.037 472.956 784.709 472.788C784.557 472.708 784.453 472.612 784.397 472.5C784.349 472.388 784.333 472.272 784.349 472.152C784.373 472.04 784.421 471.94 784.493 471.852C784.573 471.764 784.669 471.704 784.781 471.672C784.893 471.64 785.009 471.656 785.129 471.72C785.481 471.896 785.813 472.008 786.125 472.056C786.445 472.112 786.717 472.14 786.941 472.14C787.477 472.14 787.877 472.008 788.141 471.744C788.413 471.488 788.549 471.104 788.549 470.592V469.512H788.657C788.537 469.92 788.285 470.248 787.901 470.496C787.525 470.736 787.097 470.856 786.617 470.856C786.089 470.856 785.629 470.736 785.237 470.496C784.845 470.248 784.541 469.904 784.325 469.464C784.109 469.024 784.001 468.512 784.001 467.928C784.001 467.488 784.061 467.092 784.181 466.74C784.309 466.38 784.485 466.072 784.709 465.816C784.941 465.56 785.217 465.364 785.537 465.228C785.865 465.084 786.225 465.012 786.617 465.012C787.113 465.012 787.545 465.136 787.913 465.384C788.289 465.624 788.533 465.944 788.645 466.344L788.525 466.644V465.792C788.525 465.544 788.589 465.356 788.717 465.228C788.853 465.1 789.037 465.036 789.269 465.036C789.509 465.036 789.693 465.1 789.821 465.228C789.949 465.356 790.013 465.544 790.013 465.792V470.412C790.013 471.364 789.761 472.08 789.257 472.56C788.753 473.04 788.021 473.28 787.061 473.28ZM787.025 469.716C787.337 469.716 787.605 469.644 787.829 469.5C788.053 469.356 788.225 469.152 788.345 468.888C788.473 468.616 788.537 468.296 788.537 467.928C788.537 467.376 788.401 466.944 788.129 466.632C787.857 466.312 787.489 466.152 787.025 466.152C786.713 466.152 786.445 466.224 786.221 466.368C785.997 466.512 785.821 466.716 785.693 466.98C785.573 467.244 785.513 467.56 785.513 467.928C785.513 468.48 785.649 468.916 785.921 469.236C786.193 469.556 786.561 469.716 787.025 469.716Z" fill="#606166"/>
<path d="M23.4339 163C23.1779 163 22.9899 162.944 22.8699 162.832C22.7579 162.712 22.7019 162.54 22.7019 162.316C22.7019 162.18 22.7379 162.048 22.8099 161.92C22.8819 161.792 22.9859 161.656 23.1219 161.512L25.5339 158.944C25.9019 158.56 26.1659 158.212 26.3259 157.9C26.4859 157.58 26.5659 157.26 26.5659 156.94C26.5659 156.54 26.4379 156.236 26.1819 156.028C25.9339 155.82 25.5699 155.716 25.0899 155.716C24.8179 155.716 24.5459 155.756 24.2739 155.836C24.0019 155.908 23.7259 156.036 23.4459 156.22C23.3019 156.316 23.1659 156.356 23.0379 156.34C22.9179 156.324 22.8099 156.272 22.7139 156.184C22.6259 156.096 22.5659 155.988 22.5339 155.86C22.5019 155.732 22.5059 155.604 22.5459 155.476C22.5939 155.34 22.6899 155.224 22.8339 155.128C23.1779 154.896 23.5619 154.72 23.9859 154.6C24.4179 154.48 24.8499 154.42 25.2819 154.42C25.8899 154.42 26.4019 154.512 26.8179 154.696C27.2339 154.88 27.5499 155.148 27.7659 155.5C27.9819 155.852 28.0899 156.28 28.0899 156.784C28.0899 157.12 28.0339 157.448 27.9219 157.768C27.8179 158.088 27.6539 158.412 27.4299 158.74C27.2139 159.068 26.9299 159.416 26.5779 159.784L24.3219 162.136V161.728H27.8499C28.0659 161.728 28.2299 161.78 28.3419 161.884C28.4539 161.988 28.5099 162.144 28.5099 162.352C28.5099 162.56 28.4539 162.72 28.3419 162.832C28.2299 162.944 28.0659 163 27.8499 163H23.4339ZM32.9552 163.12C32.5312 163.12 32.0992 163.064 31.6592 162.952C31.2192 162.84 30.8152 162.668 30.4472 162.436C30.2952 162.34 30.1912 162.228 30.1352 162.1C30.0872 161.964 30.0752 161.832 30.0992 161.704C30.1312 161.568 30.1912 161.456 30.2792 161.368C30.3752 161.272 30.4872 161.216 30.6152 161.2C30.7512 161.184 30.8992 161.22 31.0592 161.308C31.3552 161.476 31.6552 161.604 31.9592 161.692C32.2632 161.78 32.5872 161.824 32.9312 161.824C33.2672 161.824 33.5552 161.764 33.7952 161.644C34.0352 161.524 34.2192 161.356 34.3472 161.14C34.4752 160.924 34.5392 160.672 34.5392 160.384C34.5392 159.936 34.4032 159.576 34.1312 159.304C33.8592 159.024 33.4872 158.884 33.0152 158.884C32.7592 158.884 32.5112 158.928 32.2712 159.016C32.0312 159.096 31.7952 159.24 31.5632 159.448C31.4912 159.512 31.3992 159.576 31.2872 159.64C31.1752 159.696 31.0552 159.724 30.9272 159.724C30.7272 159.724 30.5752 159.672 30.4712 159.568C30.3672 159.464 30.3152 159.32 30.3152 159.136V155.212C30.3152 154.996 30.3712 154.832 30.4832 154.72C30.6032 154.6 30.7712 154.54 30.9872 154.54H34.9352C35.1512 154.54 35.3152 154.596 35.4272 154.708C35.5472 154.812 35.6072 154.968 35.6072 155.176C35.6072 155.376 35.5472 155.532 35.4272 155.644C35.3152 155.756 35.1512 155.812 34.9352 155.812H31.8152V158.5H31.4192C31.6272 158.22 31.9032 158.004 32.2472 157.852C32.5912 157.7 32.9672 157.624 33.3752 157.624C33.9112 157.624 34.3752 157.74 34.7672 157.972C35.1672 158.196 35.4752 158.512 35.6912 158.92C35.9152 159.32 36.0272 159.788 36.0272 160.324C36.0272 160.876 35.9032 161.364 35.6552 161.788C35.4072 162.204 35.0512 162.532 34.5872 162.772C34.1312 163.004 33.5872 163.12 32.9552 163.12ZM38.2525 163.096C38.0125 163.096 37.8285 163.032 37.7005 162.904C37.5725 162.768 37.5085 162.576 37.5085 162.328V155.2C37.5085 154.952 37.5725 154.764 37.7005 154.636C37.8285 154.508 38.0125 154.444 38.2525 154.444C38.4925 154.444 38.6765 154.508 38.8045 154.636C38.9405 154.764 39.0085 154.952 39.0085 155.2V159.628H39.0325L41.0125 157.54C41.1725 157.38 41.3125 157.256 41.4325 157.168C41.5525 157.08 41.7165 157.036 41.9245 157.036C42.1325 157.036 42.2885 157.092 42.3925 157.204C42.5045 157.308 42.5605 157.436 42.5605 157.588C42.5605 157.74 42.4885 157.892 42.3445 158.044L40.2565 160.252V159.628L42.5485 162.1C42.6925 162.252 42.7565 162.408 42.7405 162.568C42.7325 162.72 42.6685 162.848 42.5485 162.952C42.4285 163.048 42.2765 163.096 42.0925 163.096C41.8685 163.096 41.6885 163.052 41.5525 162.964C41.4245 162.876 41.2805 162.744 41.1205 162.568L39.0325 160.384H39.0085V162.328C39.0085 162.84 38.7565 163.096 38.2525 163.096Z" fill="#606166"/>
<path d="M23.4339 220C23.1779 220 22.9899 219.944 22.8699 219.832C22.7579 219.712 22.7019 219.54 22.7019 219.316C22.7019 219.18 22.7379 219.048 22.8099 218.92C22.8819 218.792 22.9859 218.656 23.1219 218.512L25.5339 215.944C25.9019 215.56 26.1659 215.212 26.3259 214.9C26.4859 214.58 26.5659 214.26 26.5659 213.94C26.5659 213.54 26.4379 213.236 26.1819 213.028C25.9339 212.82 25.5699 212.716 25.0899 212.716C24.8179 212.716 24.5459 212.756 24.2739 212.836C24.0019 212.908 23.7259 213.036 23.4459 213.22C23.3019 213.316 23.1659 213.356 23.0379 213.34C22.9179 213.324 22.8099 213.272 22.7139 213.184C22.6259 213.096 22.5659 212.988 22.5339 212.86C22.5019 212.732 22.5059 212.604 22.5459 212.476C22.5939 212.34 22.6899 212.224 22.8339 212.128C23.1779 211.896 23.5619 211.72 23.9859 211.6C24.4179 211.48 24.8499 211.42 25.2819 211.42C25.8899 211.42 26.4019 211.512 26.8179 211.696C27.2339 211.88 27.5499 212.148 27.7659 212.5C27.9819 212.852 28.0899 213.28 28.0899 213.784C28.0899 214.12 28.0339 214.448 27.9219 214.768C27.8179 215.088 27.6539 215.412 27.4299 215.74C27.2139 216.068 26.9299 216.416 26.5779 216.784L24.3219 219.136V218.728H27.8499C28.0659 218.728 28.2299 218.78 28.3419 218.884C28.4539 218.988 28.5099 219.144 28.5099 219.352C28.5099 219.56 28.4539 219.72 28.3419 219.832C28.2299 219.944 28.0659 220 27.8499 220H23.4339ZM32.8832 220.12C31.8832 220.12 31.1192 219.744 30.5912 218.992C30.0632 218.232 29.7992 217.152 29.7992 215.752C29.7992 214.808 29.9152 214.016 30.1472 213.376C30.3872 212.728 30.7352 212.24 31.1912 211.912C31.6552 211.584 32.2192 211.42 32.8832 211.42C33.8912 211.42 34.6552 211.788 35.1752 212.524C35.7032 213.26 35.9672 214.332 35.9672 215.74C35.9672 216.676 35.8472 217.472 35.6072 218.128C35.3752 218.776 35.0312 219.272 34.5752 219.616C34.1192 219.952 33.5552 220.12 32.8832 220.12ZM32.8832 218.86C33.4272 218.86 33.8272 218.608 34.0832 218.104C34.3472 217.6 34.4792 216.812 34.4792 215.74C34.4792 214.668 34.3472 213.892 34.0832 213.412C33.8272 212.924 33.4272 212.68 32.8832 212.68C32.3472 212.68 31.9472 212.924 31.6832 213.412C31.4192 213.892 31.2872 214.668 31.2872 215.74C31.2872 216.812 31.4192 217.6 31.6832 218.104C31.9472 218.608 32.3472 218.86 32.8832 218.86ZM38.2525 220.096C38.0125 220.096 37.8285 220.032 37.7005 219.904C37.5725 219.768 37.5085 219.576 37.5085 219.328V212.2C37.5085 211.952 37.5725 211.764 37.7005 211.636C37.8285 211.508 38.0125 211.444 38.2525 211.444C38.4925 211.444 38.6765 211.508 38.8045 211.636C38.9405 211.764 39.0085 211.952 39.0085 212.2V216.628H39.0325L41.0125 214.54C41.1725 214.38 41.3125 214.256 41.4325 214.168C41.5525 214.08 41.7165 214.036 41.9245 214.036C42.1325 214.036 42.2885 214.092 42.3925 214.204C42.5045 214.308 42.5605 214.436 42.5605 214.588C42.5605 214.74 42.4885 214.892 42.3445 215.044L40.2565 217.252V216.628L42.5485 219.1C42.6925 219.252 42.7565 219.408 42.7405 219.568C42.7325 219.72 42.6685 219.848 42.5485 219.952C42.4285 220.048 42.2765 220.096 42.0925 220.096C41.8685 220.096 41.6885 220.052 41.5525 219.964C41.4245 219.876 41.2805 219.744 41.1205 219.568L39.0325 217.384H39.0085V219.328C39.0085 219.84 38.7565 220.096 38.2525 220.096Z" fill="#606166"/>
<path d="M23.7099 277C23.5019 277 23.3379 276.944 23.2179 276.832C23.1059 276.712 23.0499 276.552 23.0499 276.352C23.0499 276.144 23.1059 275.988 23.2179 275.884C23.3379 275.78 23.5019 275.728 23.7099 275.728H25.0539V269.836H25.7979L24.0339 270.904C23.8819 270.992 23.7379 271.028 23.6019 271.012C23.4739 270.988 23.3619 270.932 23.2659 270.844C23.1779 270.748 23.1179 270.636 23.0859 270.508C23.0539 270.38 23.0619 270.252 23.1099 270.124C23.1659 269.988 23.2699 269.876 23.4219 269.788L25.0779 268.792C25.2379 268.696 25.3979 268.616 25.5579 268.552C25.7179 268.48 25.8659 268.444 26.0019 268.444C26.1699 268.444 26.3099 268.492 26.4219 268.588C26.5339 268.676 26.5899 268.824 26.5899 269.032V275.728H27.8139C28.0219 275.728 28.1819 275.78 28.2939 275.884C28.4139 275.988 28.4739 276.144 28.4739 276.352C28.4739 276.56 28.4139 276.72 28.2939 276.832C28.1819 276.944 28.0219 277 27.8139 277H23.7099ZM32.9552 277.12C32.5312 277.12 32.0992 277.064 31.6592 276.952C31.2192 276.84 30.8152 276.668 30.4472 276.436C30.2952 276.34 30.1912 276.228 30.1352 276.1C30.0872 275.964 30.0752 275.832 30.0992 275.704C30.1312 275.568 30.1912 275.456 30.2792 275.368C30.3752 275.272 30.4872 275.216 30.6152 275.2C30.7512 275.184 30.8992 275.22 31.0592 275.308C31.3552 275.476 31.6552 275.604 31.9592 275.692C32.2632 275.78 32.5872 275.824 32.9312 275.824C33.2672 275.824 33.5552 275.764 33.7952 275.644C34.0352 275.524 34.2192 275.356 34.3472 275.14C34.4752 274.924 34.5392 274.672 34.5392 274.384C34.5392 273.936 34.4032 273.576 34.1312 273.304C33.8592 273.024 33.4872 272.884 33.0152 272.884C32.7592 272.884 32.5112 272.928 32.2712 273.016C32.0312 273.096 31.7952 273.24 31.5632 273.448C31.4912 273.512 31.3992 273.576 31.2872 273.64C31.1752 273.696 31.0552 273.724 30.9272 273.724C30.7272 273.724 30.5752 273.672 30.4712 273.568C30.3672 273.464 30.3152 273.32 30.3152 273.136V269.212C30.3152 268.996 30.3712 268.832 30.4832 268.72C30.6032 268.6 30.7712 268.54 30.9872 268.54H34.9352C35.1512 268.54 35.3152 268.596 35.4272 268.708C35.5472 268.812 35.6072 268.968 35.6072 269.176C35.6072 269.376 35.5472 269.532 35.4272 269.644C35.3152 269.756 35.1512 269.812 34.9352 269.812H31.8152V272.5H31.4192C31.6272 272.22 31.9032 272.004 32.2472 271.852C32.5912 271.7 32.9672 271.624 33.3752 271.624C33.9112 271.624 34.3752 271.74 34.7672 271.972C35.1672 272.196 35.4752 272.512 35.6912 272.92C35.9152 273.32 36.0272 273.788 36.0272 274.324C36.0272 274.876 35.9032 275.364 35.6552 275.788C35.4072 276.204 35.0512 276.532 34.5872 276.772C34.1312 277.004 33.5872 277.12 32.9552 277.12ZM38.2525 277.096C38.0125 277.096 37.8285 277.032 37.7005 276.904C37.5725 276.768 37.5085 276.576 37.5085 276.328V269.2C37.5085 268.952 37.5725 268.764 37.7005 268.636C37.8285 268.508 38.0125 268.444 38.2525 268.444C38.4925 268.444 38.6765 268.508 38.8045 268.636C38.9405 268.764 39.0085 268.952 39.0085 269.2V273.628H39.0325L41.0125 271.54C41.1725 271.38 41.3125 271.256 41.4325 271.168C41.5525 271.08 41.7165 271.036 41.9245 271.036C42.1325 271.036 42.2885 271.092 42.3925 271.204C42.5045 271.308 42.5605 271.436 42.5605 271.588C42.5605 271.74 42.4885 271.892 42.3445 272.044L40.2565 274.252V273.628L42.5485 276.1C42.6925 276.252 42.7565 276.408 42.7405 276.568C42.7325 276.72 42.6685 276.848 42.5485 276.952C42.4285 277.048 42.2765 277.096 42.0925 277.096C41.8685 277.096 41.6885 277.052 41.5525 276.964C41.4245 276.876 41.2805 276.744 41.1205 276.568L39.0325 274.384H39.0085V276.328C39.0085 276.84 38.7565 277.096 38.2525 277.096Z" fill="#606166"/>
<path d="M23.7099 334C23.5019 334 23.3379 333.944 23.2179 333.832C23.1059 333.712 23.0499 333.552 23.0499 333.352C23.0499 333.144 23.1059 332.988 23.2179 332.884C23.3379 332.78 23.5019 332.728 23.7099 332.728H25.0539V326.836H25.7979L24.0339 327.904C23.8819 327.992 23.7379 328.028 23.6019 328.012C23.4739 327.988 23.3619 327.932 23.2659 327.844C23.1779 327.748 23.1179 327.636 23.0859 327.508C23.0539 327.38 23.0619 327.252 23.1099 327.124C23.1659 326.988 23.2699 326.876 23.4219 326.788L25.0779 325.792C25.2379 325.696 25.3979 325.616 25.5579 325.552C25.7179 325.48 25.8659 325.444 26.0019 325.444C26.1699 325.444 26.3099 325.492 26.4219 325.588C26.5339 325.676 26.5899 325.824 26.5899 326.032V332.728H27.8139C28.0219 332.728 28.1819 332.78 28.2939 332.884C28.4139 332.988 28.4739 333.144 28.4739 333.352C28.4739 333.56 28.4139 333.72 28.2939 333.832C28.1819 333.944 28.0219 334 27.8139 334H23.7099ZM32.8832 334.12C31.8832 334.12 31.1192 333.744 30.5912 332.992C30.0632 332.232 29.7992 331.152 29.7992 329.752C29.7992 328.808 29.9152 328.016 30.1472 327.376C30.3872 326.728 30.7352 326.24 31.1912 325.912C31.6552 325.584 32.2192 325.42 32.8832 325.42C33.8912 325.42 34.6552 325.788 35.1752 326.524C35.7032 327.26 35.9672 328.332 35.9672 329.74C35.9672 330.676 35.8472 331.472 35.6072 332.128C35.3752 332.776 35.0312 333.272 34.5752 333.616C34.1192 333.952 33.5552 334.12 32.8832 334.12ZM32.8832 332.86C33.4272 332.86 33.8272 332.608 34.0832 332.104C34.3472 331.6 34.4792 330.812 34.4792 329.74C34.4792 328.668 34.3472 327.892 34.0832 327.412C33.8272 326.924 33.4272 326.68 32.8832 326.68C32.3472 326.68 31.9472 326.924 31.6832 327.412C31.4192 327.892 31.2872 328.668 31.2872 329.74C31.2872 330.812 31.4192 331.6 31.6832 332.104C31.9472 332.608 32.3472 332.86 32.8832 332.86ZM38.2525 334.096C38.0125 334.096 37.8285 334.032 37.7005 333.904C37.5725 333.768 37.5085 333.576 37.5085 333.328V326.2C37.5085 325.952 37.5725 325.764 37.7005 325.636C37.8285 325.508 38.0125 325.444 38.2525 325.444C38.4925 325.444 38.6765 325.508 38.8045 325.636C38.9405 325.764 39.0085 325.952 39.0085 326.2V330.628H39.0325L41.0125 328.54C41.1725 328.38 41.3125 328.256 41.4325 328.168C41.5525 328.08 41.7165 328.036 41.9245 328.036C42.1325 328.036 42.2885 328.092 42.3925 328.204C42.5045 328.308 42.5605 328.436 42.5605 328.588C42.5605 328.74 42.4885 328.892 42.3445 329.044L40.2565 331.252V330.628L42.5485 333.1C42.6925 333.252 42.7565 333.408 42.7405 333.568C42.7325 333.72 42.6685 333.848 42.5485 333.952C42.4285 334.048 42.2765 334.096 42.0925 334.096C41.8685 334.096 41.6885 334.052 41.5525 333.964C41.4245 333.876 41.2805 333.744 41.1205 333.568L39.0325 331.384H39.0085V333.328C39.0085 333.84 38.7565 334.096 38.2525 334.096Z" fill="#606166"/>
<path d="M29.2325 391.12C28.8085 391.12 28.3765 391.064 27.9365 390.952C27.4965 390.84 27.0925 390.668 26.7245 390.436C26.5725 390.34 26.4685 390.228 26.4125 390.1C26.3645 389.964 26.3525 389.832 26.3765 389.704C26.4085 389.568 26.4685 389.456 26.5565 389.368C26.6525 389.272 26.7645 389.216 26.8925 389.2C27.0285 389.184 27.1765 389.22 27.3365 389.308C27.6325 389.476 27.9325 389.604 28.2365 389.692C28.5405 389.78 28.8645 389.824 29.2085 389.824C29.5445 389.824 29.8325 389.764 30.0725 389.644C30.3125 389.524 30.4965 389.356 30.6245 389.14C30.7525 388.924 30.8165 388.672 30.8165 388.384C30.8165 387.936 30.6805 387.576 30.4085 387.304C30.1365 387.024 29.7645 386.884 29.2925 386.884C29.0365 386.884 28.7885 386.928 28.5485 387.016C28.3085 387.096 28.0725 387.24 27.8405 387.448C27.7685 387.512 27.6765 387.576 27.5645 387.64C27.4525 387.696 27.3325 387.724 27.2045 387.724C27.0045 387.724 26.8525 387.672 26.7485 387.568C26.6445 387.464 26.5925 387.32 26.5925 387.136V383.212C26.5925 382.996 26.6485 382.832 26.7605 382.72C26.8805 382.6 27.0485 382.54 27.2645 382.54H31.2125C31.4285 382.54 31.5925 382.596 31.7045 382.708C31.8245 382.812 31.8845 382.968 31.8845 383.176C31.8845 383.376 31.8245 383.532 31.7045 383.644C31.5925 383.756 31.4285 383.812 31.2125 383.812H28.0925V386.5H27.6965C27.9045 386.22 28.1805 386.004 28.5245 385.852C28.8685 385.7 29.2445 385.624 29.6525 385.624C30.1885 385.624 30.6525 385.74 31.0445 385.972C31.4445 386.196 31.7525 386.512 31.9685 386.92C32.1925 387.32 32.3045 387.788 32.3045 388.324C32.3045 388.876 32.1805 389.364 31.9325 389.788C31.6845 390.204 31.3285 390.532 30.8645 390.772C30.4085 391.004 29.8645 391.12 29.2325 391.12ZM34.5299 391.096C34.2899 391.096 34.1059 391.032 33.9779 390.904C33.8499 390.768 33.7859 390.576 33.7859 390.328V383.2C33.7859 382.952 33.8499 382.764 33.9779 382.636C34.1059 382.508 34.2899 382.444 34.5299 382.444C34.7699 382.444 34.9539 382.508 35.0819 382.636C35.2179 382.764 35.2859 382.952 35.2859 383.2V387.628H35.3099L37.2899 385.54C37.4499 385.38 37.5899 385.256 37.7099 385.168C37.8299 385.08 37.9939 385.036 38.2019 385.036C38.4099 385.036 38.5659 385.092 38.6699 385.204C38.7819 385.308 38.8379 385.436 38.8379 385.588C38.8379 385.74 38.7659 385.892 38.6219 386.044L36.5339 388.252V387.628L38.8259 390.1C38.9699 390.252 39.0339 390.408 39.0179 390.568C39.0099 390.72 38.9459 390.848 38.8259 390.952C38.7059 391.048 38.5539 391.096 38.3699 391.096C38.1459 391.096 37.9659 391.052 37.8299 390.964C37.7019 390.876 37.5579 390.744 37.3979 390.568L35.3099 388.384H35.2859V390.328C35.2859 390.84 35.0339 391.096 34.5299 391.096Z" fill="#606166"/>
<path d="M29.1605 448.12C28.1605 448.12 27.3965 447.744 26.8685 446.992C26.3405 446.232 26.0765 445.152 26.0765 443.752C26.0765 442.808 26.1925 442.016 26.4245 441.376C26.6645 440.728 27.0125 440.24 27.4685 439.912C27.9325 439.584 28.4965 439.42 29.1605 439.42C30.1685 439.42 30.9325 439.788 31.4525 440.524C31.9805 441.26 32.2445 442.332 32.2445 443.74C32.2445 444.676 32.1245 445.472 31.8845 446.128C31.6525 446.776 31.3085 447.272 30.8525 447.616C30.3965 447.952 29.8325 448.12 29.1605 448.12ZM29.1605 446.86C29.7045 446.86 30.1045 446.608 30.3605 446.104C30.6245 445.6 30.7565 444.812 30.7565 443.74C30.7565 442.668 30.6245 441.892 30.3605 441.412C30.1045 440.924 29.7045 440.68 29.1605 440.68C28.6245 440.68 28.2245 440.924 27.9605 441.412C27.6965 441.892 27.5645 442.668 27.5645 443.74C27.5645 444.812 27.6965 445.6 27.9605 446.104C28.2245 446.608 28.6245 446.86 29.1605 446.86ZM34.5299 448.096C34.2899 448.096 34.1059 448.032 33.9779 447.904C33.8499 447.768 33.7859 447.576 33.7859 447.328V440.2C33.7859 439.952 33.8499 439.764 33.9779 439.636C34.1059 439.508 34.2899 439.444 34.5299 439.444C34.7699 439.444 34.9539 439.508 35.0819 439.636C35.2179 439.764 35.2859 439.952 35.2859 440.2V444.628H35.3099L37.2899 442.54C37.4499 442.38 37.5899 442.256 37.7099 442.168C37.8299 442.08 37.9939 442.036 38.2019 442.036C38.4099 442.036 38.5659 442.092 38.6699 442.204C38.7819 442.308 38.8379 442.436 38.8379 442.588C38.8379 442.74 38.7659 442.892 38.6219 443.044L36.5339 445.252V444.628L38.8259 447.1C38.9699 447.252 39.0339 447.408 39.0179 447.568C39.0099 447.72 38.9459 447.848 38.8259 447.952C38.7059 448.048 38.5539 448.096 38.3699 448.096C38.1459 448.096 37.9659 448.052 37.8299 447.964C37.7019 447.876 37.5579 447.744 37.3979 447.568L35.3099 445.384H35.2859V447.328C35.2859 447.84 35.0339 448.096 34.5299 448.096Z" fill="#606166"/>
</g>
<rect x="5.5" y="5.5" width="817" height="497" rx="11.5" stroke="#D8D8DA"/>
</g>
<defs>
<filter id="filter0_d_7765_45183" x="0" y="0" width="823" height="503" filterUnits="userSpaceOnUse" color-interpolation-filters="sRGB">
<feFlood flood-opacity="0" result="BackgroundImageFix"/>
<feColorMatrix in="SourceAlpha" type="matrix" values="0 0 0 0 0 0 0 0 0 0 0 0 0 0 0 0 0 0 127 0" result="hardAlpha"/>
<feMorphology radius="100" operator="erode" in="SourceAlpha" result="effect1_dropShadow_7765_45183"/>
<feOffset dx="-5" dy="-5"/>
<feGaussianBlur stdDeviation="50"/>
<feComposite in2="hardAlpha" operator="out"/>
<feColorMatrix type="matrix" values="0 0 0 0 0 0 0 0 0 0 0 0 0 0 0 0 0 0 0.03 0"/>
<feBlend mode="normal" in2="BackgroundImageFix" result="effect1_dropShadow_7765_45183"/>
<feBlend mode="normal" in="SourceGraphic" in2="effect1_dropShadow_7765_45183" result="shape"/>
</filter>
<filter id="filter1_d_7765_45183" x="-1" y="0" width="824" height="84" filterUnits="userSpaceOnUse" color-interpolation-filters="sRGB">
<feFlood flood-opacity="0" result="BackgroundImageFix"/>
<feColorMatrix in="SourceAlpha" type="matrix" values="0 0 0 0 0 0 0 0 0 0 0 0 0 0 0 0 0 0 127 0" result="hardAlpha"/>
<feMorphology radius="100" operator="erode" in="SourceAlpha" result="effect1_dropShadow_7765_45183"/>
<feOffset dx="-5" dy="-5"/>
<feGaussianBlur stdDeviation="50"/>
<feComposite in2="hardAlpha" operator="out"/>
<feColorMatrix type="matrix" values="0 0 0 0 0 0 0 0 0 0 0 0 0 0 0 0 0 0 0.03 0"/>
<feBlend mode="normal" in2="BackgroundImageFix" result="effect1_dropShadow_7765_45183"/>
<feBlend mode="normal" in="SourceGraphic" in2="effect1_dropShadow_7765_45183" result="shape"/>
</filter>
<clipPath id="clip0_7765_45183">
<rect x="5" y="5" width="818" height="498" rx="12" fill="white"/>
</clipPath>
<clipPath id="clip1_7765_45183">
<rect width="766" height="275" fill="white" transform="translate(57 162)"/>
</clipPath>
</defs>
</svg>
