<svg width="144" height="97" viewBox="0 0 144 97" fill="none" xmlns="http://www.w3.org/2000/svg">
<g clip-path="url(#clip0_8260_65138)">
<path d="M68.1464 1.58548L58.3359 10.1279H72.4053V3.38777e-05C70.887 -0.00487462 69.367 0.523607 68.1464 1.58548Z" fill="#FDF0BC"/>
<path d="M76.6096 1.57563C75.4021 0.530118 73.905 0.0049085 72.4062 0V10.1279H86.4757L76.6096 1.57563Z" fill="url(#paint0_linear_8260_65138)"/>
<path d="M38.1802 15.591L36.1562 28.4415L46.9337 19.3984L40.4234 11.6396C39.2568 12.6115 38.4322 13.9941 38.1802 15.591Z" fill="#FDF0BC"/>
<path d="M44.6625 10.1444C43.0656 10.1183 41.5799 10.6795 40.4297 11.6399L46.94 19.3986L57.7174 10.3555L44.6625 10.1444Z" fill="url(#paint1_linear_8260_65138)"/>
<path d="M24.2368 45.5823L30.9451 56.7279L33.3879 42.8728L23.4154 41.1123C23.1454 42.6078 23.4023 44.1965 24.2368 45.5823Z" fill="#FDF0BC"/>
<path d="M25.6949 37.2455C24.4563 38.2534 23.6791 39.6376 23.4141 41.1118L33.3881 42.8707L35.8309 29.0156L25.6949 37.2455Z" fill="url(#paint2_linear_8260_65138)"/>
<path d="M32.8217 77.5234L45.1257 81.748L38.0918 69.5635L29.3203 74.6274C30.0746 75.9462 31.2919 76.9982 32.8217 77.5234Z" fill="url(#paint3_linear_8260_65138)"/>
<path d="M28.5863 70.2002C28.2836 71.7677 28.5781 73.3286 29.3226 74.6293L38.0941 69.5654L31.0602 57.3809L28.5863 70.2002Z" fill="url(#paint4_linear_8260_65138)"/>
<path d="M59.9421 96.4695L72.0824 91.7983L58.8622 86.9863L55.3984 96.5039C56.8235 97.0275 58.4335 97.0504 59.9421 96.4695Z" fill="url(#paint5_linear_8260_65138)"/>
<path d="M51.9857 93.5845C52.7612 94.9801 53.99 95.9864 55.3971 96.5034L58.8609 86.9858L45.6406 82.1738L51.9857 93.5845Z" fill="url(#paint6_linear_8260_65138)"/>
<path d="M92.8757 93.5566L99.1734 82.1738L85.9531 86.9858L89.4169 96.5034C90.8436 95.988 92.092 94.9719 92.8757 93.5566Z" fill="url(#paint7_linear_8260_65138)"/>
<path d="M84.9365 96.4604C86.4287 97.0314 88.0158 97.0118 89.4262 96.5029L85.9624 86.9854L72.7422 91.7973L84.9365 96.4604Z" fill="url(#paint8_linear_8260_65138)"/>
<path d="M116.252 70.1479L113.76 57.3809L106.727 69.5654L115.498 74.6293C116.261 73.3155 116.563 71.735 116.252 70.1479Z" fill="url(#paint9_linear_8260_65138)"/>
<path d="M112.034 77.4809C113.542 76.959 114.746 75.9233 115.501 74.6274L106.729 69.5635L99.6953 81.748L112.034 77.4809Z" fill="url(#paint10_linear_8260_65138)"/>
<path d="M119.101 37.1932L108.984 29.0156L111.427 42.8707L121.401 41.1118C121.144 39.6164 120.359 38.2109 119.101 37.1932Z" fill="url(#paint11_linear_8260_65138)"/>
<path d="M120.582 45.5267C121.404 44.1572 121.661 42.5898 121.404 41.1123L111.43 42.8712L113.872 56.7263L120.582 45.5267Z" fill="url(#paint12_linear_8260_65138)"/>
<path d="M100.107 10.1173L87.1016 10.3545L97.879 19.3976L104.389 11.6389C103.229 10.6605 101.726 10.0878 100.107 10.1173Z" fill="url(#paint13_linear_8260_65138)"/>
<path d="M106.592 15.5494C106.341 13.9722 105.531 12.6076 104.385 11.6406L97.875 19.3993L108.652 28.4424L106.592 15.5494Z" fill="url(#paint14_linear_8260_65138)"/>
<path d="M72.4064 84.1126C91.3826 84.1126 106.766 68.7293 106.766 49.7531C106.766 30.7768 91.3826 15.3936 72.4064 15.3936C53.4302 15.3936 38.0469 30.7768 38.0469 49.7531C38.0469 68.7293 53.4302 84.1126 72.4064 84.1126Z" fill="url(#paint15_radial_8260_65138)"/>
<path d="M72.4055 12.3242C51.7342 12.3242 34.9766 29.0802 34.9766 49.7515C34.9766 70.4229 51.7342 87.1805 72.4055 87.1805C93.0769 87.1805 109.835 70.4229 109.835 49.7515C109.835 29.0802 93.0769 12.3242 72.4055 12.3242ZM72.4055 84.1078C53.4309 84.1078 38.0493 68.7262 38.0493 49.7515C38.0493 30.7769 53.4309 15.3953 72.4055 15.3953C91.3802 15.3953 106.762 30.7769 106.762 49.7515C106.762 68.7262 91.3802 84.1078 72.4055 84.1078Z" fill="url(#paint16_linear_8260_65138)"/>
<path d="M72.4064 7.54785C49.0976 7.54785 30.2031 26.4423 30.2031 49.7512C30.2031 73.06 49.0976 91.9545 72.4064 91.9545C95.7153 91.9545 114.61 73.06 114.61 49.7512C114.61 26.4423 95.7153 7.54785 72.4064 7.54785ZM72.4064 87.1621C51.7449 87.1621 34.9955 70.4127 34.9955 49.7512C34.9955 29.0896 51.7449 12.3418 72.4064 12.3418C93.068 12.3418 109.817 29.0913 109.817 49.7528C109.817 70.4143 93.068 87.1621 72.4064 87.1621Z" fill="url(#paint17_linear_8260_65138)"/>
<path d="M62.9379 66.9706C62.3653 66.9706 61.8335 66.7873 61.3639 66.4601C61.3034 66.4192 61.2625 66.3783 61.2216 66.3374C61.1807 66.3178 61.1594 66.2769 61.1398 66.2556C61.058 66.1934 61.0171 66.1329 60.9565 66.0723C60.9156 66.0314 60.8943 65.9905 60.8551 65.9496L60.8354 65.93C60.7945 65.8891 60.7733 65.8482 60.7536 65.8073L60.7127 65.7451C60.6309 65.6224 60.5704 65.4997 60.5082 65.377C60.4886 65.3164 60.4673 65.2543 60.446 65.1937C60.4264 65.1315 60.4051 65.0514 60.3855 64.9892C60.3642 64.9074 60.3446 64.806 60.3233 64.7029C60.3233 64.662 60.3037 64.6014 60.3037 64.5605C60.3037 64.4787 60.2841 64.3969 60.2841 64.3151C60.2841 64.1727 60.3037 64.0288 60.325 63.8651L61.899 54.7092L55.2561 48.2299C55.1334 48.1072 55.0107 47.9649 54.9092 47.8209C54.7865 47.6376 54.7047 47.4937 54.6442 47.33C54.6246 47.2695 54.5837 47.1877 54.5624 47.0846C54.5002 46.8392 54.4609 46.5938 54.4609 46.3287C54.4609 46.2469 54.4609 46.1864 54.4609 46.1046C54.4609 45.9818 54.4806 45.8591 54.5215 45.7364C54.5215 45.7168 54.5411 45.6759 54.5411 45.6546C54.5624 45.5924 54.5624 45.5319 54.582 45.4714C54.582 45.4517 54.6016 45.4092 54.6229 45.3486C54.6426 45.2865 54.6638 45.2259 54.7047 45.1654C54.7653 45.0427 54.8274 44.92 54.9289 44.7776C54.9698 44.6958 55.0303 44.6353 55.0925 44.5731C55.0925 44.5731 55.0925 44.5535 55.1121 44.5535L55.4394 44.0217H55.7257C55.7666 44.0004 55.7862 43.9808 55.8271 43.9595C55.868 43.9399 55.9499 43.899 56.0104 43.8581C56.0922 43.8172 56.1936 43.7763 56.3164 43.7354C56.3573 43.7157 56.4178 43.6945 56.48 43.6945C56.5618 43.6748 56.6436 43.6536 56.745 43.6323L65.9419 42.3037L69.9882 34.0264C70.4381 33.1068 71.3576 32.5342 72.3786 32.5342C73.1149 32.5342 73.8299 32.8401 74.3404 33.3719C74.4222 33.4733 74.504 33.5551 74.5645 33.6582C74.6463 33.7809 74.7281 33.9037 74.7887 34.0264L78.8971 42.3234L88.0727 43.6519C89.0953 43.7943 89.9331 44.5109 90.239 45.491C90.2603 45.5532 90.2799 45.5924 90.2799 45.6546C90.2799 45.6742 90.2799 45.6742 90.2996 45.6955C90.3192 45.7577 90.3405 45.8182 90.3405 45.9C90.3405 45.9197 90.3405 45.9197 90.3405 45.9409C90.3601 46.0227 90.3601 46.0833 90.3601 46.1651C90.3814 46.5529 90.3192 46.9619 90.1556 47.33C90.0934 47.4937 90.0132 47.636 89.9101 47.78L89.8889 47.7996C89.7874 47.942 89.6647 48.086 89.542 48.2087L82.8992 54.6879L84.4732 63.8226C84.6368 64.8239 84.249 65.8253 83.4096 66.4388C83.2051 66.5812 82.9597 66.7252 82.7143 66.807C82.693 66.807 82.6734 66.8283 82.6325 66.8283C82.3674 66.9101 82.1007 66.951 81.8357 66.951C81.407 66.951 80.9767 66.8495 80.5889 66.645L72.3737 62.3321L64.1585 66.645C63.7953 66.8692 63.3666 66.9706 62.9379 66.9706Z" fill="#DF771E"/>
<path d="M72.3837 33.8418V50.7434L66.7422 43.5295L71.1566 34.5993C71.4233 34.1085 71.9141 33.8418 72.3837 33.8418Z" fill="#FFFAF6"/>
<path d="M88.9941 45.9217L72.3984 50.7451L78.0383 43.5312L87.8897 44.9613C88.4427 45.0627 88.8305 45.4505 88.9941 45.9217Z" fill="#FEE0AC"/>
<path d="M82.6416 65.3957L72.3828 50.7422L81.4979 54.237L83.1733 64.0475C83.2944 64.6202 83.049 65.1094 82.6416 65.3957Z" fill="#ECB76B"/>
<path d="M72.3776 50.7422V60.8586L63.5685 65.4971C63.058 65.7622 62.5262 65.6804 62.1172 65.3957L72.3776 50.7422Z" fill="#F1A341"/>
<path d="M78.0243 43.5295L72.3828 50.7434V33.8418C72.751 33.8418 73.1191 33.9841 73.3841 34.2705C73.4251 34.3114 73.466 34.3719 73.5069 34.4341C73.5478 34.4963 73.5887 34.5568 73.6083 34.6173L78.0243 43.5295Z" fill="#FFE9BA"/>
<path d="M88.9515 46.8403C88.9106 46.9221 88.8697 47.0039 88.8288 47.0857C88.7667 47.1676 88.7061 47.2281 88.6456 47.3099L81.5135 54.2587L72.3984 50.7639L88.9941 45.9404C88.9941 45.9601 89.0137 45.9813 89.0137 46.0026C89.0137 46.0239 89.035 46.0435 89.035 46.0844C89.035 46.1057 89.035 46.1057 89.035 46.1057C89.035 46.1253 89.035 46.1466 89.035 46.1662C89.035 46.2071 89.035 46.2284 89.035 46.2677C89.0546 46.4509 89.0333 46.6554 88.9515 46.8403Z" fill="#E49632"/>
<path d="M82.6432 65.3957C82.5418 65.4775 82.4191 65.538 82.2751 65.579C82.2554 65.579 82.2554 65.579 82.2342 65.5986C81.9069 65.7 81.5388 65.6804 81.1919 65.4971L72.3828 60.8586V50.7422L82.6432 65.3957Z" fill="#E29136"/>
<path d="M72.3826 50.7422L62.1239 65.3957C62.1042 65.3744 62.083 65.3548 62.0633 65.3335C62.0437 65.3139 62.0224 65.2926 62.0012 65.2714C61.9815 65.2517 61.9602 65.2304 61.9193 65.1895C61.8981 65.1699 61.8784 65.1486 61.8572 65.1274C61.8359 65.1061 61.8375 65.1077 61.8375 65.0865C61.8179 65.0668 61.7966 65.0456 61.7966 65.0243C61.7557 64.9638 61.7148 64.9016 61.6952 64.841C61.6756 64.8214 61.6756 64.7789 61.6543 64.7396C61.6347 64.6987 61.6347 64.6774 61.6134 64.6382C61.5937 64.5973 61.5938 64.5367 61.5938 64.4958C61.5938 64.4762 61.5938 64.4336 61.5938 64.414C61.5938 64.3731 61.5938 64.3322 61.5938 64.2913C61.5938 64.2095 61.5937 64.1277 61.6134 64.0459L63.2888 54.2354L72.3826 50.7422Z" fill="#FED891"/>
<path d="M72.3769 50.7431L55.7812 45.9196C55.7812 45.9 55.8009 45.8787 55.8009 45.8575C55.8205 45.8166 55.8205 45.7757 55.8418 45.756C55.8827 45.6742 55.9236 45.6137 55.9645 45.5515C55.9841 45.5106 56.0054 45.4893 56.0463 45.4501C56.0676 45.4304 56.0872 45.3879 56.1281 45.3682C56.1478 45.3486 56.1903 45.3077 56.2099 45.2864C56.2296 45.2652 56.2705 45.2455 56.2917 45.2243C56.3326 45.2046 56.3735 45.1621 56.4144 45.1425C56.4341 45.1228 56.475 45.1015 56.5159 45.1015C56.5781 45.0819 56.6173 45.0606 56.6795 45.0394C56.6991 45.0394 56.7204 45.0197 56.7613 45.0197C56.8022 45.0001 56.8628 45.0001 56.9249 44.9788L66.7763 43.5488L72.3769 50.7431Z" fill="#FFF3D9"/>
<path d="M72.3849 50.7434L63.2911 54.2579L56.159 47.3091C56.0772 47.247 56.0363 47.1668 55.9758 47.085C55.9349 47.0032 55.8743 46.9214 55.8531 46.8395C55.8334 46.7986 55.8122 46.7577 55.8122 46.7168C55.7713 46.5941 55.75 46.4518 55.75 46.3291C55.75 46.2882 55.75 46.2473 55.75 46.2064C55.75 46.1458 55.75 46.1049 55.7713 46.0427C55.7713 46.0231 55.7909 46.0018 55.7909 45.9609C55.7909 45.9413 55.8105 45.92 55.8105 45.9004L72.3849 50.7434Z" fill="#ECB76B"/>
</g>
<path d="M4.90553 44.7168L5.45061 48.0261C5.53948 48.5655 5.96231 48.9884 6.5018 49.0772L9.81105 49.6223L6.5018 50.1674C5.96231 50.2563 5.53948 50.6791 5.45061 51.2186L4.90553 54.5279L4.36044 51.2186C4.27158 50.6791 3.84874 50.2563 3.30925 50.1674L0 49.6223L3.30925 49.0772C3.84874 48.9884 4.27158 48.5655 4.36044 48.0261L4.90553 44.7168Z" fill="#3772FF"/>
<path d="M19.7649 64.2119L20.31 67.5212C20.3989 68.0607 20.8217 68.4835 21.3612 68.5724L24.6704 69.1174L21.3612 69.6625C20.8217 69.7514 20.3989 70.1742 20.31 70.7137L19.7649 74.023L19.2198 70.7137C19.131 70.1742 18.7081 69.7514 18.1686 69.6625L14.8594 69.1174L18.1686 68.5724C18.7081 68.4835 19.131 68.0607 19.2198 67.5212L19.7649 64.2119Z" fill="#CD7218"/>
<path d="M29.1633 19.5166L29.7084 22.8259C29.7973 23.3653 30.2201 23.7882 30.7596 23.877L34.0689 24.4221L30.7596 24.9672C30.2201 25.0561 29.7973 25.4789 29.7084 26.0184L29.1633 29.3277L28.6183 26.0184C28.5294 25.4789 28.1066 25.0561 27.5671 24.9672L24.2578 24.4221L27.5671 23.877C28.1066 23.7882 28.5294 23.3653 28.6183 22.8259L29.1633 19.5166Z" fill="#C91000"/>
<path d="M139.094 44.7168L138.549 48.0261C138.461 48.5655 138.038 48.9884 137.498 49.0772L134.189 49.6223L137.498 50.1674C138.038 50.2563 138.461 50.6791 138.549 51.2186L139.094 54.5279L139.64 51.2186C139.728 50.6791 140.151 50.2563 140.691 50.1674L144 49.6223L140.691 49.0772C140.151 48.9884 139.728 48.5655 139.64 48.0261L139.094 44.7168Z" fill="#3772FF"/>
<path d="M124.235 64.2119L123.69 67.5212C123.601 68.0607 123.178 68.4835 122.639 68.5724L119.33 69.1174L122.639 69.6625C123.178 69.7514 123.601 70.1742 123.69 70.7137L124.235 74.023L124.78 70.7137C124.869 70.1742 125.292 69.7514 125.831 69.6625L129.141 69.1174L125.831 68.5724C125.292 68.4835 124.869 68.0607 124.78 67.5212L124.235 64.2119Z" fill="#CD7218"/>
<path d="M114.844 19.5166L114.299 22.8259C114.211 23.3653 113.788 23.7882 113.248 23.877L109.939 24.4221L113.248 24.9672C113.788 25.0561 114.211 25.4789 114.299 26.0184L114.844 29.3277L115.39 26.0184C115.478 25.4789 115.901 25.0561 116.441 24.9672L119.75 24.4221L116.441 23.877C115.901 23.7882 115.478 23.3653 115.39 22.8259L114.844 19.5166Z" fill="#C91000"/>
<defs>
<linearGradient id="paint0_linear_8260_65138" x1="73.0941" y1="5.06394" x2="86.0139" y2="5.06394" gradientUnits="userSpaceOnUse">
<stop stop-color="#FEE998"/>
<stop offset="1" stop-color="#FCC15B"/>
</linearGradient>
<linearGradient id="paint1_linear_8260_65138" x1="44.3636" y1="14.9462" x2="57.2577" y2="4.12593" gradientUnits="userSpaceOnUse">
<stop stop-color="#FEE998"/>
<stop offset="1" stop-color="#FCC15B"/>
</linearGradient>
<linearGradient id="paint2_linear_8260_65138" x1="36.0617" y1="28.9866" x2="28.7856" y2="40.9403" gradientUnits="userSpaceOnUse">
<stop stop-color="#FCC15B"/>
<stop offset="1" stop-color="#FEE998"/>
</linearGradient>
<linearGradient id="paint3_linear_8260_65138" x1="32.6376" y1="71.8119" x2="45.2842" y2="80.1275" gradientUnits="userSpaceOnUse">
<stop stop-color="#FFC05F"/>
<stop offset="1" stop-color="#ED892B"/>
</linearGradient>
<linearGradient id="paint4_linear_8260_65138" x1="31.2044" y1="57.6461" x2="33.4566" y2="71.8518" gradientUnits="userSpaceOnUse">
<stop stop-color="#FCC15B"/>
<stop offset="1" stop-color="#FEE998"/>
</linearGradient>
<linearGradient id="paint5_linear_8260_65138" x1="57.7635" y1="91.9146" x2="70.2369" y2="94.6865" gradientUnits="userSpaceOnUse">
<stop stop-color="#FEAC3E"/>
<stop offset="1" stop-color="#F08223"/>
</linearGradient>
<linearGradient id="paint6_linear_8260_65138" x1="45.0168" y1="82.0653" x2="56.4507" y2="91.4203" gradientUnits="userSpaceOnUse">
<stop stop-color="#FFA135"/>
<stop offset="1" stop-color="#FEB431"/>
</linearGradient>
<linearGradient id="paint7_linear_8260_65138" x1="99.2229" y1="82.0924" x2="87.8179" y2="91.9094" gradientUnits="userSpaceOnUse">
<stop stop-color="#FFAA3D"/>
<stop offset="1" stop-color="#ED8B1C"/>
</linearGradient>
<linearGradient id="paint8_linear_8260_65138" x1="72.7923" y1="92.7085" x2="87.3445" y2="91.9" gradientUnits="userSpaceOnUse">
<stop stop-color="#FF962D"/>
<stop offset="1" stop-color="#E56005"/>
</linearGradient>
<linearGradient id="paint9_linear_8260_65138" x1="114.295" y1="57.4321" x2="111.369" y2="71.6763" gradientUnits="userSpaceOnUse">
<stop stop-color="#FDBD41"/>
<stop offset="1" stop-color="#FEB334"/>
</linearGradient>
<linearGradient id="paint10_linear_8260_65138" x1="118.133" y1="59.9395" x2="104.064" y2="84.3075" gradientUnits="userSpaceOnUse">
<stop stop-color="#F6942F"/>
<stop offset="1" stop-color="#EA6F11"/>
</linearGradient>
<linearGradient id="paint11_linear_8260_65138" x1="108.278" y1="29.4253" x2="116.748" y2="41.9757" gradientUnits="userSpaceOnUse">
<stop stop-color="#FDBD41"/>
<stop offset="1" stop-color="#FEB334"/>
</linearGradient>
<linearGradient id="paint12_linear_8260_65138" x1="113.345" y1="56.6908" x2="116.656" y2="42.0615" gradientUnits="userSpaceOnUse">
<stop stop-color="#FD9D24"/>
<stop offset="1" stop-color="#FF9515"/>
</linearGradient>
<linearGradient id="paint13_linear_8260_65138" x1="100.971" y1="15.3275" x2="87.8816" y2="9.01386" gradientUnits="userSpaceOnUse">
<stop stop-color="#FCC15B"/>
<stop offset="1" stop-color="#FEE998"/>
</linearGradient>
<linearGradient id="paint14_linear_8260_65138" x1="101.03" y1="14.5243" x2="107.267" y2="28.3835" gradientUnits="userSpaceOnUse">
<stop stop-color="#FF9515"/>
<stop offset="1" stop-color="#FFBE41"/>
</linearGradient>
<radialGradient id="paint15_radial_8260_65138" cx="0" cy="0" r="1" gradientUnits="userSpaceOnUse" gradientTransform="translate(72.4066 49.7524) scale(34.3595)">
<stop offset="0.8428" stop-color="#FAAA31"/>
<stop offset="1" stop-color="#F57E16"/>
</radialGradient>
<linearGradient id="paint16_linear_8260_65138" x1="72.4058" y1="12.3236" x2="72.4058" y2="87.1814" gradientUnits="userSpaceOnUse">
<stop offset="0.0226" stop-color="#FD9A18"/>
<stop offset="0.3764" stop-color="#FEC752"/>
<stop offset="1" stop-color="#FFA422"/>
</linearGradient>
<linearGradient id="paint17_linear_8260_65138" x1="72.4067" y1="7.42416" x2="72.4067" y2="91.8311" gradientUnits="userSpaceOnUse">
<stop stop-color="#FFDB69"/>
<stop offset="0.1799" stop-color="#FEE7B0"/>
<stop offset="0.24" stop-color="#FEE9BA"/>
<stop offset="0.2592" stop-color="#FDECD0"/>
<stop offset="0.2953" stop-color="#FEDA92"/>
<stop offset="0.3254" stop-color="#FFCD64"/>
<stop offset="0.3405" stop-color="#FFC853"/>
<stop offset="0.7613" stop-color="#FF9114"/>
<stop offset="1" stop-color="#F57E16"/>
</linearGradient>
<clipPath id="clip0_8260_65138">
<rect width="98.1885" height="96.9015" fill="white" transform="translate(23.3125)"/>
</clipPath>
</defs>
</svg>
