<svg width="150" height="50" viewBox="0 0 150 50" fill="none" xmlns="http://www.w3.org/2000/svg">
<g clip-path="url(#clip0_7754_67837)">
<path d="M54.4221 20.6592C54.4221 21.2853 54.3 21.8697 54.0557 22.3288C53.8115 22.788 53.4859 23.2054 53.1195 23.4975C52.7532 23.8315 52.3054 24.0402 51.8576 24.2071C51.4099 24.3741 50.9621 24.4576 50.5551 24.4576H37.2443C36.7152 24.4576 36.3488 25.0002 36.5524 25.4593C36.6338 25.6263 36.7152 25.835 36.7966 26.0437C37.0815 26.628 37.4886 27.2124 38.0178 27.7133C38.5469 28.2141 39.1575 28.6733 39.8495 29.0072C40.5415 29.3411 41.3556 29.5498 42.2511 29.5498C42.7803 29.5498 43.3502 29.4663 43.8794 29.3411C44.4085 29.1742 44.9377 28.9655 45.4262 28.715C45.7518 28.5063 46.1182 28.3811 46.4438 28.2976C46.8102 28.2141 47.1765 28.1724 47.5836 28.1724C48.1941 28.1724 48.7233 28.2976 49.1711 28.5063C49.6595 28.715 50.0666 29.0489 50.4737 29.4663C51.2471 30.3011 51.2064 31.6368 50.3108 32.3464C49.4153 33.0977 48.4384 33.682 47.4207 34.1829C45.7925 34.9342 44.0422 35.3099 42.2104 35.3099C40.5008 35.3099 38.9133 34.976 37.4072 34.3081C35.9011 33.6403 34.5985 32.722 33.4587 31.595C32.319 30.4681 31.4642 29.0907 30.8129 27.588C30.1616 26.0437 29.8359 24.4158 29.8359 22.6628C29.8359 20.9097 30.1616 19.2818 30.8129 17.7375C31.4642 16.1931 32.3597 14.8574 33.4587 13.7305C34.5985 12.6035 35.9011 11.6852 37.4072 11.0174C38.9133 10.3495 40.5008 10.0156 42.2104 10.0156C43.6351 10.0156 44.9784 10.2661 46.281 10.7252C47.5836 11.2261 48.764 11.8939 49.8224 12.7287C50.8807 13.5635 51.7762 14.607 52.5496 15.734C53.323 16.9027 53.8522 18.1549 54.2186 19.4488C54.2593 19.6575 54.3 19.8662 54.3 20.0749C54.3 20.2836 54.4221 20.4923 54.4221 20.6592ZM46.8509 19.1984C47.4614 19.1984 47.7871 18.4888 47.4207 18.0296C47.0951 17.6123 46.7287 17.2366 46.2403 16.8609C45.7518 16.527 45.1819 16.2348 44.5713 15.9844C43.9201 15.734 43.2281 15.6505 42.4547 15.6505C41.5998 15.6505 40.8264 15.7757 40.1344 16.0679C39.4424 16.3601 38.8319 16.694 38.3434 17.1114C37.8142 17.5288 37.4072 17.9879 37.0815 18.447C36.7559 18.9479 36.5524 19.4071 36.4302 19.8245C36.5116 19.741 36.6338 19.6158 36.8373 19.4905C37.0408 19.3236 37.3258 19.2401 37.6921 19.2401H46.8509V19.1984Z" fill="url(#paint0_linear_7754_67837)"/>
<path d="M60.2466 1.29297C61.9155 1.29297 63.2588 2.67038 63.2588 4.38171V10.5174C63.2588 11.1018 63.8694 11.4357 64.3578 11.1435C64.8056 10.8514 65.2941 10.6427 65.7825 10.4757C66.7188 10.1418 67.655 9.97483 68.5912 9.97483C70.3009 9.97483 71.8884 10.3087 73.3538 10.9766C74.8192 11.6444 76.1218 12.5627 77.2208 13.6897C78.3199 14.8584 79.1747 16.194 79.7853 17.7384C80.3958 19.2828 80.7215 20.9106 80.7215 22.6637C80.7215 24.4168 80.3958 26.0446 79.7853 27.589C79.1747 29.1334 78.3199 30.469 77.2208 31.596C76.1218 32.7647 74.8599 33.6412 73.3945 34.3091C71.9291 34.9769 70.3416 35.3108 68.6726 35.3108H67.9806C67.9399 35.3108 67.8992 35.3108 67.8585 35.3108C66.8816 35.1439 65.9861 34.8517 65.2127 34.476C64.7242 34.2256 64.2357 33.9752 63.8287 33.683C63.4216 33.3908 63.0553 33.0986 62.811 32.8065C62.811 33.1404 62.7703 33.4326 62.6889 33.7247C62.6075 33.9752 62.5668 34.2256 62.4854 34.3926C62.404 34.5595 62.3226 34.7265 62.2819 34.81C62.2005 34.8934 62.1597 34.9769 62.1597 34.9769H59.8802C58.4148 34.9769 57.2344 33.7665 57.2344 32.2638V4.38171C57.2344 2.67038 58.5777 1.29297 60.2466 1.29297ZM68.5912 29.1751C69.4867 29.1751 70.3009 29.0081 71.0336 28.6742C71.7663 28.3403 72.4175 27.8812 72.9874 27.2551C73.5166 26.6707 73.9644 25.9611 74.29 25.1681C74.6156 24.375 74.7785 23.5402 74.7785 22.622C74.7785 21.7454 74.6156 20.8689 74.29 20.0758C73.9644 19.2828 73.5573 18.5732 72.9874 17.9889C72.4583 17.4045 71.807 16.9454 71.0336 16.5697C70.3009 16.2358 69.4867 16.0688 68.5912 16.0688C67.5329 16.0688 66.5152 16.3193 65.579 16.8201C64.7242 17.2793 63.9915 17.8636 63.4216 18.615C63.3402 18.7402 63.2588 18.9071 63.2588 19.0741V26.1281C63.2588 26.2951 63.2995 26.462 63.4216 26.5872C63.9915 27.3386 64.7242 27.9229 65.579 28.382C66.5152 28.9247 67.4922 29.1751 68.5912 29.1751Z" fill="url(#paint1_linear_7754_67837)"/>
<path d="M83.5234 22.5795C83.5234 20.8264 83.8491 19.1986 84.5004 17.6542C85.1517 16.1098 86.0472 14.7742 87.1462 13.6055C88.2453 12.4367 89.5886 11.5602 91.0947 10.8924C92.6008 10.2245 94.1883 9.89062 95.8979 9.89062C97.6076 9.89062 99.1951 10.2245 100.701 10.8924C102.207 11.5602 103.51 12.4785 104.65 13.6055C105.789 14.7324 106.644 16.1098 107.296 17.6542C107.947 19.1986 108.272 20.8264 108.272 22.5795C108.272 24.3326 107.947 25.9604 107.296 27.5048C106.644 29.0492 105.749 30.3848 104.65 31.5535C103.51 32.7222 102.207 33.5988 100.701 34.2666C99.1951 34.9344 97.6076 35.2684 95.8979 35.2684C94.1883 35.2684 92.6008 34.9344 91.0947 34.2666C89.5886 33.5988 88.286 32.6805 87.1462 31.5535C86.0065 30.3848 85.1517 29.0492 84.5004 27.5048C83.8491 25.9604 83.5234 24.3326 83.5234 22.5795ZM89.5072 22.6212C89.5072 23.4978 89.67 24.3743 89.9956 25.1674C90.3213 25.9604 90.769 26.67 91.3796 27.2543C91.9495 27.8387 92.6415 28.2978 93.4149 28.6318C94.1883 28.9657 95.0024 29.1326 95.8979 29.1326C96.7528 29.1326 97.6076 28.9657 98.381 28.6318C99.1544 28.2978 99.8464 27.8387 100.416 27.2543C100.986 26.67 101.434 25.9604 101.8 25.1674C102.126 24.3743 102.289 23.5395 102.289 22.6212C102.289 21.703 102.126 20.8682 101.8 20.0751C101.475 19.2821 100.986 18.5725 100.416 17.9881C99.8464 17.4038 99.1544 16.9446 98.381 16.569C97.6076 16.2351 96.7935 16.0681 95.8979 16.0681C95.0431 16.0681 94.1883 16.2351 93.4149 16.569C92.6415 16.9029 91.9495 17.4038 91.3796 17.9881C90.8097 18.5725 90.3213 19.2821 89.9956 20.0751C89.67 20.8682 89.5072 21.703 89.5072 22.6212Z" fill="url(#paint2_linear_7754_67837)"/>
<path d="M116.171 10.6008C116.212 10.6425 116.293 10.8095 116.456 11.0599C116.619 11.3103 116.7 11.6025 116.741 11.9782C116.741 12.1869 116.781 12.3956 116.781 12.5625C116.781 12.7712 116.781 12.8965 116.781 13.0634C117.107 12.6878 117.473 12.3121 117.921 11.9782C118.369 11.6443 118.817 11.3521 119.346 11.1016C119.875 10.8512 120.404 10.6425 120.974 10.5173C121.544 10.3921 122.114 10.3086 122.684 10.3086C123.335 10.3086 124.027 10.3921 124.76 10.559C125.085 10.6425 125.37 10.726 125.696 10.8095C126.388 11.0182 126.836 11.7695 126.714 12.5208C126.632 12.9382 126.591 13.3973 126.51 13.8147C126.429 14.2321 126.307 14.6078 126.103 14.9417C125.899 15.2756 125.655 15.5261 125.37 15.7765C125.085 15.9852 124.719 16.1939 124.353 16.2774C123.986 16.4026 123.579 16.4443 123.213 16.4443C123.131 16.4443 123.05 16.4443 123.05 16.4443C123.05 16.4443 122.887 16.4443 122.643 16.4443C122.032 16.4443 121.463 16.5278 120.933 16.653C120.364 16.82 119.875 16.9869 119.427 17.2374C118.98 17.4878 118.572 17.78 118.247 18.1139C117.758 18.5731 117.433 19.1992 117.311 19.867C117.229 20.2009 117.229 20.4931 117.188 20.7853V32.1802C117.188 33.8915 115.845 35.2689 114.176 35.2689C112.507 35.2689 111.164 33.8915 111.164 32.1802V11.3521C111.164 10.9347 111.49 10.6008 111.897 10.6008H116.171Z" fill="url(#paint3_linear_7754_67837)"/>
<path d="M132.9 15.6114C132.575 15.4027 132.249 15.1523 131.923 14.9436C131.557 14.7349 131.394 14.234 131.72 13.8584C132.046 13.441 131.883 13.6497 131.964 13.5662C132.168 13.3157 132.453 13.0236 132.738 12.6896C133.022 12.3975 133.389 12.1053 133.755 11.8548C134.651 11.2288 135.668 10.7696 136.727 10.4774C137.785 10.1853 138.966 9.97656 140.268 9.97656C141.652 9.97656 142.873 10.1435 143.891 10.4774C144.909 10.8114 145.804 11.2705 146.496 11.8548C147.229 12.4392 147.799 13.1488 148.246 13.9418C148.694 14.7349 149.06 15.6114 149.305 16.5297C149.549 17.4897 149.712 18.4497 149.834 19.4932C149.915 20.5367 149.956 21.5802 149.956 22.6654V33.476C149.956 34.3108 149.305 34.9787 148.491 34.9787H145.804C145.316 34.9787 144.827 34.6865 144.664 34.1856C144.501 33.8517 144.42 33.5178 144.42 33.1838C143.972 33.5178 143.525 33.8099 142.995 34.0604C142.466 34.3108 141.896 34.5613 141.367 34.7282C140.797 34.8952 140.227 35.0621 139.698 35.1456C139.169 35.2291 138.64 35.2708 138.192 35.2708C136.93 35.2708 135.79 35.1039 134.732 34.7282C133.674 34.3526 132.778 33.8517 132.005 33.1421C131.231 32.4743 130.621 31.6395 130.214 30.6795C129.766 29.7194 129.562 28.676 129.562 27.5072C129.562 24.8776 130.539 22.8741 132.534 21.4132C134.529 19.9524 137.459 19.2428 141.367 19.2428C141.978 19.2428 142.507 19.2845 142.955 19.3263C143.402 19.368 143.728 19.4097 143.891 19.4515C143.769 18.1993 143.402 17.2393 142.792 16.5297C142.181 15.8201 141.326 15.4862 140.227 15.4862C139.535 15.4862 138.965 15.5279 138.558 15.6532C138.151 15.7784 137.785 15.9036 137.459 16.0288C137.134 16.154 136.849 16.2793 136.564 16.4045C136.157 16.5714 135.587 16.6132 134.854 16.5297C134.773 16.5297 134.732 16.488 134.651 16.488C134.04 16.2375 133.43 15.9453 132.9 15.6114ZM138.192 29.8447C139.047 29.8447 140.024 29.6777 141.082 29.3855C141.978 29.1351 142.873 28.7594 143.687 28.342C143.932 28.2168 144.094 27.9664 144.094 27.6742V25.4203C144.094 25.0446 143.809 24.7107 143.402 24.6689C143.24 24.6689 143.077 24.6689 142.914 24.6272C142.303 24.5855 141.652 24.5855 140.919 24.5855C140.146 24.5855 139.454 24.6689 138.762 24.7942C138.111 24.9194 137.541 25.0863 137.052 25.3368C136.36 25.6707 135.831 26.1298 135.587 26.7142C135.546 26.7977 135.506 26.8811 135.506 27.0064C135.383 27.9246 135.628 28.6342 136.198 29.2186C136.645 29.5942 137.297 29.8447 138.192 29.8447Z" fill="url(#paint4_linear_7754_67837)"/>
<path d="M78.0688 42.3244C78.1502 42.4079 78.191 42.5331 78.191 42.6584C78.191 42.7836 78.1502 42.9088 78.0688 42.9923C77.9874 43.0758 77.8653 43.1175 77.7432 43.1175H75.7893V49.0445C75.7893 49.1698 75.7486 49.295 75.6672 49.3785C75.5858 49.4619 75.4637 49.5037 75.3416 49.5037C75.2195 49.5037 75.0973 49.4619 75.0159 49.3785C74.9345 49.295 74.8938 49.1698 74.8938 49.0445V43.1175H72.9399C72.8178 43.1175 72.6957 43.0758 72.6143 42.9923C72.5329 42.9088 72.4922 42.7836 72.4922 42.6584C72.4922 42.5331 72.5329 42.4079 72.6143 42.3244C72.6957 42.241 72.8178 42.1992 72.9399 42.1992H77.8246C77.906 42.1992 77.9874 42.241 78.0688 42.3244Z" fill="#39BD78"/>
<path d="M79.0049 49.377C78.9235 49.2935 78.8828 49.1683 78.8828 49.0431V42.7404C78.8828 42.6152 78.9235 42.4899 79.0049 42.4065C79.0863 42.323 79.2085 42.2812 79.3306 42.2812C79.4527 42.2812 79.5748 42.323 79.6562 42.4065C79.7376 42.4899 79.7783 42.6152 79.7783 42.7404V45.4117H84.0117V42.7404C84.0117 42.6152 84.0524 42.4899 84.1338 42.4065C84.2152 42.323 84.3374 42.2812 84.4595 42.2812C84.5816 42.2812 84.7037 42.323 84.7851 42.4065C84.8665 42.4899 84.9072 42.6152 84.9072 42.7404V49.0431C84.9072 49.1683 84.8665 49.2935 84.7851 49.377C84.7037 49.4605 84.5816 49.5022 84.4595 49.5022C84.3374 49.5022 84.2152 49.4605 84.1338 49.377C84.0524 49.2935 84.0117 49.1683 84.0117 49.0431V46.2465H79.7783V49.0431C79.7783 49.1683 79.7376 49.2935 79.6562 49.377C79.5748 49.4605 79.4527 49.5022 79.3306 49.5022C79.2085 49.5022 79.127 49.4605 79.0049 49.377Z" fill="#39BD78"/>
<path d="M86.4971 49.377C86.4157 49.2935 86.375 49.1683 86.375 49.0431V42.7404C86.375 42.6152 86.4157 42.4899 86.4971 42.4065C86.5785 42.323 86.7006 42.2812 86.8228 42.2812H90.934C91.0561 42.2812 91.1782 42.323 91.2597 42.4065C91.3411 42.4899 91.3818 42.6152 91.3818 42.7404C91.3818 42.8656 91.3411 42.9908 91.2597 43.0743C91.1782 43.1578 91.0561 43.1995 90.934 43.1995H87.3112V45.4535H89.9164C90.0385 45.4535 90.1606 45.4952 90.242 45.5787C90.3234 45.6622 90.3641 45.7874 90.3641 45.9126C90.3641 46.0378 90.3234 46.163 90.242 46.2465C90.1606 46.33 90.0385 46.3717 89.9164 46.3717H87.3112V48.7092H90.934C91.0561 48.7092 91.1782 48.7509 91.2597 48.8344C91.3411 48.9179 91.3818 49.0013 91.3818 49.1683C91.3818 49.2935 91.3411 49.4187 91.2597 49.5022C91.1782 49.5857 91.0561 49.6274 90.934 49.6274H86.8228C86.7006 49.5022 86.6192 49.4605 86.4971 49.377Z" fill="#39BD78"/>
<path d="M96.0221 49.085C95.493 48.7511 95.0452 48.292 94.7603 47.7494C94.4346 47.165 94.3125 46.5389 94.3125 45.8711C94.3125 45.2033 94.4753 44.5772 94.7603 43.9928C95.0859 43.4084 95.493 42.991 96.0221 42.6571C96.5513 42.3232 97.1619 42.1562 97.8132 42.1562C98.2609 42.1562 98.668 42.198 98.9936 42.3232C99.3193 42.4484 99.6856 42.6571 100.011 42.9493C100.093 42.991 100.133 43.0745 100.174 43.1163C100.215 43.158 100.215 43.2415 100.215 43.325C100.215 43.4502 100.174 43.5337 100.093 43.6171C100.011 43.7006 99.8892 43.7424 99.8078 43.7424C99.6856 43.7424 99.6042 43.7006 99.4821 43.6171C99.2379 43.4084 98.9936 43.2415 98.7494 43.158C98.5052 43.0745 98.2202 43.0328 97.8132 43.0328C97.3247 43.0328 96.9177 43.158 96.5106 43.4084C96.1036 43.6589 95.7779 43.9928 95.5744 44.4519C95.3301 44.9111 95.208 45.3702 95.208 45.8711C95.208 46.4137 95.3301 46.8728 95.5744 47.2902C95.8186 47.7076 96.1036 48.0833 96.5106 48.3337C96.9177 48.5842 97.3247 48.7094 97.8132 48.7094C98.3831 48.7094 98.9529 48.5007 99.4821 48.0833C99.6042 47.9998 99.6856 47.9581 99.7671 47.9581C99.8892 47.9581 99.9706 47.9998 100.052 48.0833C100.133 48.1668 100.174 48.292 100.174 48.4172C100.174 48.5424 100.133 48.6676 100.011 48.7511C99.36 49.2937 98.6273 49.5442 97.7725 49.5442C97.1619 49.5859 96.592 49.419 96.0221 49.085Z" fill="#39BD78"/>
<path d="M102.374 49.1268C101.845 48.7929 101.397 48.3755 101.112 47.7911C100.827 47.2067 100.664 46.5807 100.664 45.8711C100.664 45.1615 100.827 44.4937 101.112 43.9511C101.397 43.3667 101.845 42.9493 102.374 42.6154C102.903 42.2815 103.554 42.1562 104.246 42.1562C104.938 42.1562 105.549 42.3232 106.119 42.6154C106.648 42.9493 107.096 43.3667 107.421 43.9511C107.747 44.5354 107.869 45.1615 107.869 45.8711C107.869 46.5807 107.706 47.2485 107.421 47.7911C107.096 48.3755 106.689 48.7929 106.159 49.1268C105.63 49.4607 104.979 49.5859 104.287 49.5859C103.513 49.5859 102.903 49.4189 102.374 49.1268ZM105.63 48.3337C106.037 48.0833 106.363 47.7494 106.607 47.2902C106.851 46.8728 106.933 46.372 106.933 45.8293C106.933 45.2867 106.811 44.8276 106.607 44.3685C106.363 43.9511 106.037 43.5754 105.63 43.325C105.223 43.0745 104.775 42.9493 104.246 42.9493C103.717 42.9493 103.269 43.0745 102.862 43.325C102.455 43.5754 102.129 43.9093 101.885 44.3685C101.641 44.7858 101.56 45.2867 101.56 45.8293C101.56 46.372 101.682 46.8311 101.885 47.2902C102.129 47.7076 102.455 48.0833 102.862 48.3337C103.269 48.5842 103.758 48.7094 104.246 48.7094C104.735 48.7094 105.223 48.5842 105.63 48.3337Z" fill="#39BD78"/>
<path d="M109.005 49.377C108.924 49.2935 108.883 49.1683 108.883 49.0431V42.7404C108.883 42.6152 108.924 42.4899 109.005 42.4065C109.086 42.323 109.208 42.2812 109.331 42.2812C109.453 42.2812 109.575 42.323 109.656 42.4065C109.738 42.4899 109.778 42.6152 109.778 42.7404V48.5839H113.075C113.198 48.5839 113.32 48.6257 113.401 48.7092C113.483 48.7926 113.523 48.9179 113.523 49.0431C113.523 49.1683 113.483 49.2935 113.401 49.377C113.32 49.4605 113.198 49.5022 113.075 49.5022H109.29C109.208 49.5022 109.086 49.4605 109.005 49.377Z" fill="#39BD78"/>
<path d="M114.458 49.377C114.377 49.2935 114.336 49.1683 114.336 49.0431V42.7404C114.336 42.6152 114.377 42.4899 114.458 42.4065C114.539 42.323 114.662 42.2812 114.784 42.2812C114.906 42.2812 115.028 42.323 115.109 42.4065C115.191 42.4899 115.231 42.6152 115.231 42.7404V48.5839H118.529C118.651 48.5839 118.773 48.6257 118.854 48.7092C118.936 48.7926 118.976 48.9179 118.976 49.0431C118.976 49.1683 118.936 49.2935 118.854 49.377C118.773 49.4605 118.651 49.5022 118.529 49.5022H114.784C114.621 49.5022 114.539 49.4605 114.458 49.377Z" fill="#39BD78"/>
<path d="M119.872 49.377C119.791 49.2935 119.75 49.1683 119.75 49.0431V42.7404C119.75 42.6152 119.791 42.4899 119.872 42.4065C119.954 42.323 120.076 42.2812 120.198 42.2812H124.309C124.431 42.2812 124.553 42.323 124.635 42.4065C124.716 42.4899 124.757 42.6152 124.757 42.7404C124.757 42.8656 124.716 42.9908 124.635 43.0743C124.553 43.1578 124.431 43.1995 124.309 43.1995H120.686V45.4535H123.291C123.413 45.4535 123.536 45.4952 123.617 45.5787C123.698 45.6622 123.739 45.7874 123.739 45.9126C123.739 46.0378 123.698 46.163 123.617 46.2465C123.536 46.33 123.413 46.3717 123.291 46.3717H120.686V48.7092H124.309C124.431 48.7092 124.553 48.7509 124.635 48.8344C124.716 48.9179 124.757 49.0013 124.757 49.1683C124.757 49.2935 124.716 49.4187 124.635 49.5022C124.553 49.5857 124.431 49.6274 124.309 49.6274H120.198C120.076 49.5022 119.954 49.4605 119.872 49.377Z" fill="#39BD78"/>
<path d="M126.632 49.085C126.102 48.7511 125.655 48.292 125.37 47.7494C125.044 47.165 124.922 46.5389 124.922 45.8711C124.922 45.2033 125.085 44.5772 125.37 43.9928C125.695 43.4084 126.102 42.991 126.632 42.6571C127.161 42.3232 127.771 42.1562 128.423 42.1562C128.87 42.1562 129.277 42.198 129.603 42.3232C129.929 42.4484 130.295 42.6571 130.621 42.9493C130.702 42.991 130.743 43.0745 130.783 43.1163C130.824 43.158 130.824 43.2415 130.824 43.325C130.824 43.4502 130.783 43.5337 130.702 43.6171C130.621 43.7006 130.499 43.7424 130.417 43.7424C130.295 43.7424 130.214 43.7006 130.091 43.6171C129.847 43.4084 129.603 43.2415 129.359 43.158C129.115 43.0745 128.83 43.0328 128.423 43.0328C127.934 43.0328 127.527 43.158 127.12 43.4084C126.713 43.6589 126.387 43.9928 126.184 44.4519C125.94 44.9111 125.817 45.3702 125.817 45.8711C125.817 46.4137 125.94 46.8728 126.184 47.2902C126.428 47.7076 126.713 48.0833 127.12 48.3337C127.527 48.5842 127.934 48.7094 128.423 48.7094C128.992 48.7094 129.562 48.5007 130.091 48.0833C130.214 47.9998 130.295 47.9581 130.376 47.9581C130.499 47.9581 130.58 47.9998 130.661 48.0833C130.743 48.1668 130.783 48.292 130.783 48.4172C130.783 48.5424 130.743 48.6676 130.621 48.7511C129.969 49.2937 129.237 49.5442 128.382 49.5442C127.771 49.5859 127.161 49.419 126.632 49.085Z" fill="#39BD78"/>
<path d="M136.889 42.3244C136.971 42.4079 137.011 42.5331 137.011 42.6584C137.011 42.7836 136.971 42.9088 136.889 42.9923C136.808 43.0758 136.686 43.1175 136.564 43.1175H134.61V49.0445C134.61 49.1698 134.569 49.295 134.488 49.3785C134.406 49.4619 134.284 49.5037 134.162 49.5037C134.04 49.5037 133.918 49.4619 133.836 49.3785C133.755 49.295 133.714 49.1698 133.714 49.0445V43.1175H131.76C131.638 43.1175 131.516 43.0758 131.435 42.9923C131.353 42.9088 131.312 42.7836 131.312 42.6584C131.312 42.5331 131.353 42.4079 131.435 42.3244C131.516 42.241 131.638 42.1992 131.76 42.1992H136.645C136.726 42.1992 136.808 42.241 136.889 42.3244Z" fill="#39BD78"/>
<path d="M138.717 49.1268C138.188 48.7929 137.741 48.3755 137.456 47.7911C137.171 47.2067 137.008 46.5807 137.008 45.8711C137.008 45.1615 137.171 44.4937 137.456 43.9511C137.741 43.3667 138.188 42.9493 138.717 42.6154C139.247 42.2815 139.898 42.1562 140.59 42.1562C141.282 42.1562 141.892 42.3232 142.462 42.6154C142.992 42.9493 143.439 43.3667 143.765 43.9511C144.091 44.5354 144.213 45.1615 144.213 45.8711C144.213 46.5807 144.05 47.2485 143.765 47.7911C143.439 48.3755 143.032 48.7929 142.503 49.1268C141.974 49.4607 141.323 49.5859 140.631 49.5859C139.939 49.5859 139.247 49.4189 138.717 49.1268ZM141.974 48.3337C142.381 48.0833 142.707 47.7494 142.951 47.2902C143.195 46.8728 143.276 46.372 143.276 45.8293C143.276 45.2867 143.154 44.8276 142.951 44.3685C142.707 43.9511 142.381 43.5754 141.974 43.325C141.567 43.0745 141.119 42.9493 140.59 42.9493C140.061 42.9493 139.613 43.0745 139.206 43.325C138.799 43.5754 138.473 43.9093 138.229 44.3685C137.985 44.7858 137.903 45.2867 137.903 45.8293C137.903 46.372 138.025 46.8311 138.229 47.2902C138.473 47.7076 138.799 48.0833 139.206 48.3337C139.613 48.5842 140.101 48.7094 140.59 48.7094C141.078 48.7094 141.567 48.5842 141.974 48.3337Z" fill="#39BD78"/>
<path d="M149.955 49.0445C149.955 49.1698 149.914 49.2532 149.832 49.3367C149.751 49.4202 149.629 49.4619 149.507 49.4619C149.344 49.4619 149.181 49.3785 149.1 49.2115L147.553 46.6236H147.349H146.169V48.9611C146.169 49.0863 146.128 49.2115 146.047 49.295C145.965 49.3785 145.843 49.4202 145.721 49.4202C145.599 49.4202 145.477 49.3785 145.396 49.295C145.314 49.2115 145.273 49.0863 145.273 48.9611V42.6584C145.273 42.5331 145.314 42.4079 145.396 42.3244C145.477 42.241 145.599 42.1992 145.721 42.1992H147.349C147.797 42.1992 148.204 42.2827 148.571 42.4914C148.937 42.7001 149.222 42.9505 149.385 43.2845C149.588 43.6184 149.67 44.0358 149.67 44.4949C149.67 44.954 149.547 45.3297 149.344 45.6636C149.14 45.9975 148.815 46.248 148.448 46.4567L149.832 48.7524C149.914 48.8358 149.955 48.9611 149.955 49.0445ZM147.349 45.7888C147.756 45.7888 148.082 45.6636 148.367 45.4132C148.652 45.1627 148.774 44.8706 148.774 44.4949C148.774 44.0775 148.652 43.7436 148.367 43.4931C148.082 43.2427 147.756 43.1175 147.349 43.1175H146.169V45.7888H147.349Z" fill="#39BD78"/>
<path d="M19.9406 38.6934C19.6963 38.0673 19.9406 37.3577 20.1034 36.8151C21.8537 30.7628 27.8781 21.8723 1.78588 5.59378C0.97177 5.0929 0.320481 4.29984 0.116953 3.33983C-0.412219 1.12763 1.25671 -1.12632 6.3449 0.62675C6.46702 0.668489 6.67055 0.751969 6.79267 0.835448L16.9283 5.59378C18.5159 6.34509 20.5511 5.67725 21.4874 4.17462C23.7262 0.50153 31.7045 3.38157 26.5349 11.0199C24.8252 12.94 24.3368 15.653 25.1916 18.0739C27.2269 23.7923 29.425 35.2707 22.7085 39.1108C22.7492 39.1108 20.5918 40.4882 19.9406 38.6934Z" fill="url(#paint5_linear_7754_67837)"/>
<path d="M22.7506 39.1099C22.7506 39.1099 20.6339 40.4873 19.9419 38.6925C19.6977 38.0664 19.9419 37.3568 20.1047 36.8142C21.041 33.6002 23.1983 29.5515 21.0002 24.0001C20.5932 22.9984 20.064 21.9549 19.372 20.8279C19.2906 20.7027 19.2092 20.6192 19.1278 20.494C18.5172 19.5757 17.7845 18.6157 16.9297 17.6557C17.4589 15.2765 19.4941 13.5234 21.9772 13.5234C23.0762 13.5234 24.0939 13.8991 24.9487 14.4835C24.7452 15.6522 24.8266 16.9044 25.2743 18.0731C25.6407 19.1166 26.007 20.327 26.3327 21.6627C27.7574 27.7149 28.2458 35.9794 22.7506 39.1099Z" fill="url(#paint6_linear_7754_67837)"/>
<path d="M26.1734 29.0893C26.1734 28.8389 26.1327 28.5884 26.1327 28.338C26.1327 28.2963 26.1327 28.2545 26.1327 28.2128C26.1327 28.0458 26.0919 27.8789 26.0919 27.7119C26.0919 27.7119 26.0919 27.7119 26.0919 27.6702C26.0919 27.5867 26.0512 27.5032 26.0512 27.4197C26.0105 27.211 25.9698 27.0023 25.9291 26.7936C25.9291 26.7102 25.8884 26.6267 25.8884 26.5432C25.8884 26.4597 25.8477 26.3762 25.807 26.2928C25.807 26.251 25.7663 26.2093 25.7663 26.1675C25.6442 25.7502 25.5221 25.3745 25.3592 24.9571C25.3185 24.8736 25.2778 24.7484 25.2371 24.6649C25.1557 24.4562 25.0743 24.2475 24.9929 24.0806C24.9522 24.0388 24.9522 23.9553 24.9115 23.9136C24.8708 23.8301 24.8708 23.7884 24.8301 23.7049C24.7894 23.6214 24.7487 23.5797 24.7487 23.4962C24.708 23.4127 24.6673 23.371 24.6673 23.2875C24.6265 23.204 24.5858 23.1623 24.5858 23.0788C24.5451 22.9953 24.5044 22.9536 24.4637 22.8701C24.3823 22.7449 24.3009 22.6197 24.2602 22.4527C24.1788 22.3275 24.0974 22.2023 24.016 22.0353C23.9753 21.9518 23.9346 21.9101 23.8939 21.8266C23.8124 21.7014 23.731 21.5344 23.6496 21.4092C23.6496 21.3675 23.6089 21.3675 23.6089 21.3257C23.5682 21.2423 23.4868 21.1588 23.4461 21.0753C23.2019 20.7414 22.9576 20.3657 22.7134 20.0318C22.2656 19.4475 21.7772 18.8214 21.248 18.237C20.3932 17.277 19.4162 16.2752 18.2765 15.19C15.3457 12.4769 11.3565 9.47166 6.10552 6.17423C5.29141 5.67335 4.64012 4.88029 4.43659 3.92028C4.11095 2.45939 4.68082 1.04024 6.55328 0.664583C6.51257 0.664583 6.47187 0.622843 6.43116 0.622843C1.26156 -1.13022 -0.407372 1.12372 0.0810946 3.33592C0.284622 4.29594 0.935911 5.08899 1.75002 5.58987C9.03632 10.1395 13.8396 14.1465 16.8925 17.6109C17.381 18.1953 17.8287 18.7379 18.2765 19.2805C18.3172 19.364 18.3986 19.4475 18.4393 19.5309C18.6835 19.8649 18.8871 20.157 19.0906 20.4909C19.1313 20.5744 19.2127 20.6579 19.2534 20.7414C19.2534 20.7831 19.2941 20.7831 19.2941 20.8249L19.4162 21.0336C19.5791 21.3257 19.7419 21.5762 19.9047 21.8266C19.9454 21.9101 19.9861 21.9518 20.0268 22.0353C20.0675 22.1188 20.1082 22.1605 20.1489 22.244C20.1896 22.3275 20.2303 22.3692 20.2711 22.4527C20.3118 22.5362 20.3525 22.5779 20.3525 22.6614C20.3932 22.7449 20.4339 22.7866 20.4339 22.8701C20.4746 22.9536 20.5153 22.9953 20.5153 23.0788C20.5967 23.2875 20.6781 23.4545 20.7595 23.6632C20.8002 23.7466 20.8002 23.7884 20.8409 23.8719C20.8816 23.9553 20.8816 23.9971 20.9223 24.0806C20.963 24.164 21.0038 24.2893 21.0445 24.3727C21.1259 24.5814 21.2073 24.8319 21.2887 25.0406C21.3294 25.1241 21.3294 25.1658 21.3701 25.2493C21.3701 25.291 21.4108 25.3328 21.4108 25.3745C21.4108 25.458 21.4515 25.4997 21.4515 25.5832C21.4515 25.5832 21.4515 25.5832 21.4515 25.6249C21.4515 25.6667 21.4922 25.7084 21.4922 25.7502C21.4922 25.7502 21.4922 25.7501 21.4922 25.7919C21.5329 25.8754 21.5329 25.9588 21.5329 26.0006C21.5736 26.0841 21.5736 26.1675 21.5736 26.251C21.5736 26.2928 21.5736 26.2928 21.5736 26.3345V26.3762C21.5736 26.4597 21.6143 26.5432 21.6143 26.6267C21.6143 26.6684 21.6143 26.7102 21.655 26.7519C21.6957 26.8771 21.6957 27.0441 21.7365 27.1693C21.7772 27.3363 21.7772 27.545 21.8179 27.7119C21.8179 27.7537 21.8179 27.7954 21.8179 27.8371C21.8179 27.9206 21.8179 28.0041 21.8179 28.0458C21.8179 28.0876 21.8179 28.1711 21.8179 28.2128C21.8179 28.2545 21.8179 28.2963 21.8179 28.338C21.8179 28.4215 21.8179 28.505 21.8179 28.5467C21.8179 29.3398 21.7772 30.1328 21.655 30.8841C21.6143 31.0511 21.6143 31.2598 21.5736 31.4268C21.5736 31.5102 21.5329 31.5937 21.5329 31.6772C21.4515 32.1363 21.3294 32.5537 21.2073 32.9711C21.1259 33.2216 21.0445 33.5137 20.963 33.7642C20.6374 34.8911 20.2303 35.8929 19.9454 36.8529C19.9047 36.9781 19.864 37.1451 19.8233 37.312C19.7826 37.4373 19.7826 37.5207 19.7419 37.646C19.6605 38.0216 19.6605 38.3973 19.7826 38.7312C19.864 38.9816 19.9861 39.1486 20.1082 39.2738L20.1489 39.3156L20.1896 39.3573C20.2303 39.399 20.2711 39.399 20.3118 39.4408C20.3118 39.4408 20.3525 39.4408 20.3525 39.4825C20.3932 39.4825 20.3932 39.5243 20.4339 39.5243H20.4746C20.5153 39.5243 20.5153 39.566 20.556 39.566H20.5967C20.6374 39.566 20.6374 39.566 20.6781 39.6077C20.7188 39.6495 20.7188 39.6077 20.7595 39.6077C20.8002 39.6077 20.8409 39.6077 20.8409 39.6077C21.0038 39.6077 21.1666 39.6077 21.3701 39.566C21.4108 39.566 21.4515 39.566 21.4922 39.5243C21.7772 39.4408 22.0621 39.3156 22.2656 39.2321C22.3063 39.2321 22.3063 39.1903 22.347 39.1903C22.4692 39.1069 22.5506 39.0651 22.5506 39.0651C22.7541 38.9399 22.9576 38.8147 23.1611 38.6895C23.2426 38.6477 23.324 38.5642 23.4054 38.5225C23.4868 38.4808 23.5275 38.439 23.6089 38.3555C23.6903 38.2721 23.7717 38.1886 23.8939 38.1468C23.9346 38.1051 23.9753 38.0634 24.016 38.0634C24.016 38.0216 24.016 37.9799 24.0567 37.9381C24.0567 37.8964 24.0567 37.8547 24.0974 37.8129C24.1381 37.646 24.1788 37.479 24.2195 37.3538C24.5044 36.3938 24.8708 35.392 25.2371 34.265V34.2233C25.2778 34.0564 25.3185 33.8894 25.3592 33.7642C25.4407 33.5137 25.5221 33.2633 25.5628 32.9711C25.6035 32.8876 25.6035 32.8042 25.6035 32.7207C25.6442 32.6372 25.6442 32.5537 25.6442 32.4702C25.6849 32.3033 25.7256 32.1363 25.7663 31.9276C25.807 31.7607 25.8477 31.552 25.8477 31.385C25.8477 31.3015 25.8884 31.2181 25.8884 31.0928C25.8884 31.0094 25.9291 30.9259 25.9291 30.8007C25.9291 30.7172 25.9291 30.6337 25.9698 30.5085C25.9698 30.425 25.9698 30.3415 25.9698 30.2998C25.9698 30.258 25.9698 30.2163 25.9698 30.1746C25.9698 30.1328 25.9698 30.0911 25.9698 30.0493C25.9698 30.0076 25.9698 29.9659 25.9698 29.8824C25.9698 29.7989 25.9698 29.7154 25.9698 29.6319C25.9698 29.5485 25.9698 29.4232 25.9698 29.3398C26.1734 29.2563 26.1734 29.1728 26.1734 29.0893Z" fill="#1B75BC"/>
</g>
<defs>
<linearGradient id="paint0_linear_7754_67837" x1="27.8481" y1="22.981" x2="213.851" y2="18.2978" gradientUnits="userSpaceOnUse">
<stop stop-color="#1B75BC"/>
<stop offset="0.2442" stop-color="#1C78BE"/>
<stop offset="0.4215" stop-color="#1E81C5"/>
<stop offset="0.5777" stop-color="#2291D0"/>
<stop offset="0.7209" stop-color="#28A7DF"/>
<stop offset="0.7405" stop-color="#29ABE2"/>
</linearGradient>
<linearGradient id="paint1_linear_7754_67837" x1="27.7579" y1="19.2527" x2="213.761" y2="14.5695" gradientUnits="userSpaceOnUse">
<stop stop-color="#1B75BC"/>
<stop offset="0.2442" stop-color="#1C78BE"/>
<stop offset="0.4215" stop-color="#1E81C5"/>
<stop offset="0.5777" stop-color="#2291D0"/>
<stop offset="0.7209" stop-color="#28A7DF"/>
<stop offset="0.7405" stop-color="#29ABE2"/>
</linearGradient>
<linearGradient id="paint2_linear_7754_67837" x1="27.8806" y1="24.399" x2="213.884" y2="19.7158" gradientUnits="userSpaceOnUse">
<stop stop-color="#1B75BC"/>
<stop offset="0.2442" stop-color="#1C78BE"/>
<stop offset="0.4215" stop-color="#1E81C5"/>
<stop offset="0.5777" stop-color="#2291D0"/>
<stop offset="0.7209" stop-color="#28A7DF"/>
<stop offset="0.7405" stop-color="#29ABE2"/>
</linearGradient>
<linearGradient id="paint3_linear_7754_67837" x1="27.9017" y1="25.1684" x2="213.904" y2="20.4853" gradientUnits="userSpaceOnUse">
<stop stop-color="#1B75BC"/>
<stop offset="0.2442" stop-color="#1C78BE"/>
<stop offset="0.4215" stop-color="#1E81C5"/>
<stop offset="0.5777" stop-color="#2291D0"/>
<stop offset="0.7209" stop-color="#28A7DF"/>
<stop offset="0.7405" stop-color="#29ABE2"/>
</linearGradient>
<linearGradient id="paint4_linear_7754_67837" x1="27.9107" y1="25.5569" x2="213.914" y2="20.8737" gradientUnits="userSpaceOnUse">
<stop stop-color="#1B75BC"/>
<stop offset="0.2442" stop-color="#1C78BE"/>
<stop offset="0.4215" stop-color="#1E81C5"/>
<stop offset="0.5777" stop-color="#2291D0"/>
<stop offset="0.7209" stop-color="#28A7DF"/>
<stop offset="0.7405" stop-color="#29ABE2"/>
</linearGradient>
<linearGradient id="paint5_linear_7754_67837" x1="-0.00516377" y1="19.8123" x2="28.2519" y2="19.8123" gradientUnits="userSpaceOnUse">
<stop stop-color="#1B75BC"/>
<stop offset="0.2442" stop-color="#1C78BE"/>
<stop offset="0.4215" stop-color="#1E81C5"/>
<stop offset="0.5777" stop-color="#2291D0"/>
<stop offset="0.7209" stop-color="#28A7DF"/>
<stop offset="0.7405" stop-color="#29ABE2"/>
</linearGradient>
<linearGradient id="paint6_linear_7754_67837" x1="22.6038" y1="41.8597" x2="21.9704" y2="20.5217" gradientUnits="userSpaceOnUse">
<stop offset="0.5027" stop-color="#2BB673"/>
<stop offset="0.6061" stop-color="#2BB677" stop-opacity="0.7921"/>
<stop offset="0.6989" stop-color="#2BB581" stop-opacity="0.6054"/>
<stop offset="0.7878" stop-color="#2AB394" stop-opacity="0.4268"/>
<stop offset="0.8741" stop-color="#2AB0AE" stop-opacity="0.2532"/>
<stop offset="0.9579" stop-color="#29ADCE" stop-opacity="0.0847222"/>
<stop offset="1" stop-color="#29ABE2" stop-opacity="0"/>
</linearGradient>
<clipPath id="clip0_7754_67837">
<rect width="150" height="49.5868" fill="white"/>
</clipPath>
</defs>
</svg>
