<svg width="349" height="544" viewBox="0 0 349 544" fill="none" xmlns="http://www.w3.org/2000/svg">
<path d="M73.1671 612.813C72.9686 603.3 79.4571 594.772 84.3998 587.905C137.716 514.503 264.035 423.481 -18.0758 73.7295C-26.8106 62.8679 -31.8268 48.9811 -30.2193 35.0233C-26.369 2.24497 7.48626 -19.9017 69.5207 28.5649C71.1316 29.8036 73.573 32.0023 75.0488 33.4141L192.219 148.244C210.583 166.23 241.96 167.467 262.084 151.338C310.878 112.392 407.125 191.137 298.907 269.44L298.73 269.525C266.049 287.148 245.923 321.569 246.058 358.794C246.395 446.618 221.222 613.34 110.032 632.162C110.121 632.12 73.8942 640.364 73.1671 612.813Z" fill="url(#paint0_linear_7754_67866)"/>
<defs>
<linearGradient id="paint0_linear_7754_67866" x1="-111.056" y1="257.89" x2="279.817" y2="397.35" gradientUnits="userSpaceOnUse">
<stop stop-color="#1B75BC"/>
<stop offset="0.2442" stop-color="#1C78BE"/>
<stop offset="0.4215" stop-color="#1E81C5"/>
<stop offset="0.5777" stop-color="#2291D0"/>
<stop offset="0.7209" stop-color="#28A7DF"/>
<stop offset="0.7405" stop-color="#29ABE2"/>
</linearGradient>
</defs>
</svg>
